<?xml version="1.0" encoding="UTF-8" standalone="no"?>
<svg
   xmlns:dc="http://purl.org/dc/elements/1.1/"
   xmlns:cc="http://creativecommons.org/ns#"
   xmlns:rdf="http://www.w3.org/1999/02/22-rdf-syntax-ns#"
   xmlns:svg="http://www.w3.org/2000/svg"
   xmlns="http://www.w3.org/2000/svg"
   xmlns:sodipodi="http://sodipodi.sourceforge.net/DTD/sodipodi-0.dtd"
   xmlns:inkscape="http://www.inkscape.org/namespaces/inkscape"
   version="1.1"
   preserveAspectRatio="xMidYMid meet"
   viewBox="0 0 624.76953 179.37674"
   id="svg5820"
   sodipodi:docname="logo-text-transparent.svg"
   inkscape:version="0.92.0 r"
   width="624.76953"
   height="179.37674">
  <metadata
     id="metadata5824">
    <rdf:RDF>
      <cc:Work
         rdf:about="">
        <dc:format>image/svg+xml</dc:format>
        <dc:type
           rdf:resource="http://purl.org/dc/dcmitype/StillImage" />
        <dc:title></dc:title>
      </cc:Work>
    </rdf:RDF>
  </metadata>
  <sodipodi:namedview
     pagecolor="#ffffff"
     bordercolor="#666666"
     borderopacity="1"
     objecttolerance="10"
     gridtolerance="10"
     guidetolerance="10"
     inkscape:pageopacity="0"
     inkscape:pageshadow="2"
     inkscape:window-width="1920"
     inkscape:window-height="1035"
     id="namedview5822"
     showgrid="false"
     inkscape:zoom="1.4142136"
     inkscape:cx="387.45375"
     inkscape:cy="28.748481"
     inkscape:window-x="1441"
     inkscape:window-y="23"
     inkscape:window-maximized="0"
     inkscape:current-layer="svg5820"
     inkscape:snap-intersection-paths="true"
     inkscape:object-paths="true"
     inkscape:showpageshadow="false"
     fit-margin-top="0"
     fit-margin-left="0"
     fit-margin-right="0"
     fit-margin-bottom="0" />
  <path
     style="opacity:1;fill:#f3a40f;fill-opacity:1;stroke:none;stroke-width:1.66022766;stroke-linecap:square;stroke-linejoin:miter;stroke-miterlimit:4;stroke-dasharray:none;stroke-opacity:1"
     d="m 60.544906,50.612194 c -0.0884,0 -0.16015,0.0698 -0.16015,0.1582 v 71.900386 c 0,0.0884 0.0717,0.16016 0.16015,0.16015 h 11.33203 c 0.0884,1e-5 0.15821,-0.0718 0.15821,-0.16015 V 94.776254 h 14.77539 l 14.630864,27.849606 13.42383,0.0742 -15.921884,-29.820316 c 2.596844,-0.9464 4.948274,-2.25468 6.859384,-3.95507 4.48992,-3.99489 6.56054,-10.13253 6.56054,-16.22852 0,-6.09599 -1.40266,-11.9895 -5.89258,-15.98438 -2.24496,-1.99744 -5.17422,-3.89658 -8.486324,-4.91992 -3.25696,-1.00629 -6.88051,-1.16486 -10.25782,-1.16992 v -0.01 h -15.84961 z m 11.31836,10.4082 c 3.44469,2.5e-4 6.90725,0.0867 10.34766,0.10156 3.4404,0.0149 6.85702,-0.0417 10.11719,0.55469 1.81059,0.56926 3.41341,1.6252 4.64062,2.73633 2.45445,2.22226 3.220704,5.50151 3.220704,8.89257 -0.0496,3.87236 -1.348154,6.25263 -3.082034,7.95508 -1.73387,1.70245 -3.90379,2.72605 -6.74804,3.1836 -5.67844,0.21454 -13.02278,0.26716 -18.58399,0.16797 v -23.50391 c 0,-0.0247 0.009,-0.0466 0.0254,-0.0625 0.0159,-0.0156 0.0383,-0.0254 0.0625,-0.0254 z"
     id="letter-a"
     inkscape:connector-curvature="0" />
  <path
     style="opacity:1;fill:#f3a40f;fill-opacity:1;stroke:none;stroke-width:2;stroke-linecap:square;stroke-linejoin:miter;stroke-miterlimit:4;stroke-dasharray:none;stroke-opacity:1"
     d="m 146.06835,50.205934 -27.78711,72.935546 12.60352,-0.0293 6.83789,-17.70508 31.73437,0.0898 6,17.55078 13.88477,-0.0449 -27.77539,-72.738276 z m 7.35352,12.67969 11.70703,31.63672 -23.29688,0.10352 z"
     id="rect4552"
     inkscape:connector-curvature="0" />
  <path
     style="opacity:1;fill:#f3a40f;fill-opacity:1;stroke:none;stroke-width:2;stroke-linecap:square;stroke-linejoin:miter;stroke-miterlimit:4;stroke-dasharray:none;stroke-opacity:1"
     d="m 197.14257,50.752814 v 30.22266 h 11.5957 v -30.22266 z m 0,43.30078 v 28.458986 h 11.5957 V 94.053594 Z"
     id="rect4562"
     inkscape:connector-curvature="0" />
  <path
     style="opacity:1;fill:#f3a40f;fill-opacity:1;stroke:none;stroke-width:2;stroke-linecap:square;stroke-linejoin:miter;stroke-miterlimit:4;stroke-dasharray:none;stroke-opacity:1"
     d="m 225.68163,50.836794 v 30.14844 h 11.59571 v -9.15039 l 6.45507,9.15039 h 14.4961 l -20.95117,-30.13867 v -0.01 z m 47.32422,0 v 30.14844 h 11.5957 v -30.14844 z m -47.32422,43.16016 v 28.499996 h 11.59571 V 93.996954 Z m 27.26953,0.0586 20.05469,28.429686 v 0.0117 h 0.01 l 0.0117,0.0137 0.0449,-0.0137 h 11.5332 v -3.43555 l 0.0801,-0.0234 -0.0801,-0.11524 V 94.055564 h -11.5957 v 8.187496 l -5.69141,-8.187496 z"
     id="rect4567"
     inkscape:connector-curvature="0" />
  <path
     style="opacity:1;fill:#f3a40f;fill-opacity:1;stroke:none;stroke-width:2;stroke-linecap:square;stroke-linejoin:miter;stroke-miterlimit:4;stroke-dasharray:none;stroke-opacity:1"
     d="m 297.40038,50.862194 v 11.375 h 21.14063 v 18.75 h 11.625 v -18.75 h 20.84375 v -11.375 z m 21.14063,43.125 v 28.499996 h 11.625 V 93.987194 Z"
     id="rect4571"
     inkscape:connector-curvature="0" />
  <path
     style="opacity:1;fill:#f3a40f;fill-opacity:1;stroke:none;stroke-width:2;stroke-linecap:square;stroke-linejoin:miter;stroke-miterlimit:4;stroke-dasharray:none;stroke-opacity:1"
     d="m 363.79491,50.746954 v 30.24024 h 11.27149 v -19.07618 h 33.39648 V 50.862194 H 375.0664 v -0.11524 z m 0,43.24024 v 28.677726 h 11.27149 v -0.10547 h 33.39648 v -9.66992 H 375.0664 V 93.987194 Z"
     id="rect4575"
     inkscape:connector-curvature="0" />
  <path
     style="opacity:1;fill:#f3a40f;fill-opacity:1;stroke:none;stroke-width:2;stroke-linecap:square;stroke-linejoin:miter;stroke-miterlimit:4;stroke-dasharray:none;stroke-opacity:1"
     d="m 458.38476,49.612194 c -5.0569,0 -10.3531,0.45873 -14.9883,2.01953 -4.6353,1.5606 -8.61,4.22316 -11.9082,7.57226 -6.5966,6.6984 -9.6035,17.2017 -9.6035,27.47071 0,10.26909 3.2159,21.069216 9.8437,27.798816 3.3139,3.3648 7.3915,6.15406 11.9942,7.66016 4.6027,1.5061 9.7302,1.72851 14.7871,1.72852 6.5553,0 12.89,-1.9784 18.5644,-5.1543 l -0.035,-12.41016 c -5.3722,4.3034 -11.9454,7.125 -18.2266,7.125 -7.0658,0.172 -13.1241,-1.15656 -17.8535,-5.88476 -4.5272,-4.5968 -7.0762,-13.829346 -7.0762,-20.843746 1.0661,-11.2895 3.5202,-21.25824 13.8985,-24.86524 3.1661,-1.0661 7.579,-1.77539 11.0332,-1.77539 6.2425,0 12.7709,2.54797 18.125,6.54297 l -0.029,-12.29492 c -5.6748,-2.9098 -11.9971,-4.68945 -18.5254,-4.68945 z"
     id="rect4579"
     inkscape:connector-curvature="0" />
  <path
     style="opacity:1;fill:#f3a40f;fill-opacity:1;stroke:none;stroke-width:2;stroke-linecap:square;stroke-linejoin:miter;stroke-miterlimit:4;stroke-dasharray:none;stroke-opacity:1"
     d="m 493.16996,50.659064 v 71.947266 h 11.58 V 90.522344 h 35.8848 v 32.083986 h 11.8398 V 50.659064 h -11.8398 v 29.08008 h -35.8848 v -29.08008 z"
     id="rect4583"
     inkscape:connector-curvature="0" />
  <path
     style="opacity:1;fill:#f3a40f;fill-opacity:1;stroke:none;stroke-width:2;stroke-linecap:square;stroke-linejoin:miter;stroke-miterlimit:4;stroke-dasharray:none;stroke-opacity:1"
     d="m 572.03516,107.38953 a 9.6490479,9.6490479 0 0 0 -9.6504,9.64844 9.6490479,9.6490479 0 0 0 9.6504,9.65039 9.6490479,9.6490479 0 0 0 9.6484,-9.65039 9.6490479,9.6490479 0 0 0 -9.6484,-9.64844 z"
     id="rect4587"
     inkscape:connector-curvature="0" />
  <rect
     style="opacity:1;fill:none;fill-opacity:1;stroke:#f3a40f;stroke-width:11.33940411;stroke-linecap:square;stroke-linejoin:miter;stroke-miterlimit:4;stroke-dasharray:none;stroke-opacity:1"
     id="rect6351"
     width="613.72217"
     height="168.32939"
     x="5.5236731"
     y="5.5236731"
     ry="0" />
</svg>