<?xml version="1.0" encoding="UTF-8" standalone="no"?>
<svg
   xmlns:dc="http://purl.org/dc/elements/1.1/"
   xmlns:cc="http://creativecommons.org/ns#"
   xmlns:rdf="http://www.w3.org/1999/02/22-rdf-syntax-ns#"
   xmlns:svg="http://www.w3.org/2000/svg"
   xmlns="http://www.w3.org/2000/svg"
   xmlns:sodipodi="http://sodipodi.sourceforge.net/DTD/sodipodi-0.dtd"
   xmlns:inkscape="http://www.inkscape.org/namespaces/inkscape"
   version="1.1"
   preserveAspectRatio="xMidYMid meet"
   viewBox="0 0 979.29883 144.79335"
   id="svg5820"
   sodipodi:docname="logo-final.svg"
   inkscape:version="0.92.0 r"
   width="979.29883"
   height="144.79335"
   inkscape:export-filename="/Users/rinaandriana/Design/LOGO/logo-final-blue.png"
   inkscape:export-xdpi="100"
   inkscape:export-ydpi="100">
  <metadata
     id="metadata5824">
    <rdf:RDF>
      <cc:Work
         rdf:about="">
        <dc:format>image/svg+xml</dc:format>
        <dc:type
           rdf:resource="http://purl.org/dc/dcmitype/StillImage" />
        <dc:title />
      </cc:Work>
    </rdf:RDF>
  </metadata>
  <sodipodi:namedview
     pagecolor="#ffffff"
     bordercolor="#666666"
     borderopacity="1"
     objecttolerance="10"
     gridtolerance="10"
     guidetolerance="10"
     inkscape:pageopacity="0"
     inkscape:pageshadow="2"
     inkscape:window-width="1920"
     inkscape:window-height="1035"
     id="namedview5822"
     showgrid="false"
     inkscape:zoom="0.5"
     inkscape:cx="213.94299"
     inkscape:cy="184.30696"
     inkscape:window-x="1440"
     inkscape:window-y="23"
     inkscape:window-maximized="0"
     inkscape:current-layer="svg5820"
     inkscape:snap-intersection-paths="true"
     inkscape:object-paths="true"
     inkscape:showpageshadow="false"
     fit-margin-top="0"
     fit-margin-left="0"
     fit-margin-right="0"
     fit-margin-bottom="0" />
  <path
     style="opacity:1;fill:#f3a40f;fill-opacity:1;stroke:none;stroke-width:3.11886191;stroke-linecap:square;stroke-linejoin:miter;stroke-miterlimit:4;stroke-dasharray:none;stroke-opacity:1"
     d="M 0.300854,1.8785748 C 0.134788,1.8785748 0,2.0096993 0,2.1757654 V 137.24603 c 0,0.16606 0.134694,0.30087 0.300854,0.30085 H 21.58892 c 0.166066,2e-5 0.297209,-0.13488 0.297209,-0.30085 V 84.844066 h 27.756676 l 27.485165,52.317574 25.21767,0.13939 -29.910444,-56.0197 c 4.878358,-1.777883 9.295696,-4.235585 12.885859,-7.429895 8.434645,-7.5047 12.324465,-19.034716 12.324465,-30.486489 0,-11.451773 -2.635,-22.523173 -11.069652,-30.027854 C 82.358542,9.5847517 76.855708,6.0170751 70.63368,4.0946544 64.515237,2.2042633 57.708128,1.9063777 51.363598,1.8968721 V 1.8780864 H 21.58892 Z M 21.56324,21.431157 c 6.471108,4.7e-4 12.975786,0.162873 19.438853,0.190788 6.463049,0.02799 12.881425,-0.07834 19.005899,1.042027 3.401328,1.069397 6.412346,3.05306 8.717752,5.140401 4.610867,4.174681 6.050325,10.334998 6.050325,16.705358 -0.09318,7.274518 -2.5326,11.746033 -5.789824,14.944213 -3.257204,3.198179 -7.333561,5.121088 -12.676698,5.98063 -10.667374,0.40303 -24.464266,0.50188 -34.911415,0.315545 V 21.596265 c 0,-0.0464 0.01691,-0.08754 0.04772,-0.117411 0.02987,-0.02931 0.07195,-0.04772 0.117411,-0.04772 z"
     id="letter-R"
     inkscape:connector-curvature="0" />
  <path
     style="opacity:1;fill:#f3a40f;fill-opacity:1;stroke:none;stroke-width:3.7571497;stroke-linecap:square;stroke-linejoin:miter;stroke-miterlimit:4;stroke-dasharray:none;stroke-opacity:1"
     d="m 160.96303,1.115385 -52.20016,137.014885 23.67665,-0.055 12.84549,-33.26032 59.61539,0.1687 11.27145,32.97045 26.08358,-0.0844 L 190.07728,1.2254131 Z m 13.81414,23.819746 21.99253,59.431946 -43.76493,0.19447 z"
     id="letter-A"
     inkscape:connector-curvature="0" />
  <path
     style="opacity:1;fill:#f3a40f;fill-opacity:1;stroke:none;stroke-width:3.7571497;stroke-linecap:square;stroke-linejoin:miter;stroke-miterlimit:4;stroke-dasharray:none;stroke-opacity:1"
     d="m 256.90978,2.14274 v 56.775528 h 21.78339 V 2.14274 Z m 0,81.343755 v 53.462345 h 21.78339 V 83.486495 Z"
     id="letter-I"
     inkscape:connector-curvature="0" />
  <path
     style="opacity:1;fill:#f3a40f;fill-opacity:1;stroke:none;stroke-width:3.7571497;stroke-linecap:square;stroke-linejoin:miter;stroke-miterlimit:4;stroke-dasharray:none;stroke-opacity:1"
     d="M 310.52254,2.3005027 V 58.936603 h 21.78341 V 41.746911 l 12.12633,17.189692 h 27.23201 L 332.30595,2.3188564 v -0.018786 z m 88.90209,0 V 58.936603 h 21.78339 V 2.3005027 Z M 310.52254,83.380092 v 53.539378 h 21.78341 V 83.380092 Z m 51.22785,0.110085 37.67424,53.407303 v 0.022 h 0.0188 l 0.022,0.0257 0.0843,-0.0257 h 21.66598 v -6.45394 l 0.15047,-0.044 -0.15047,-0.21649 V 83.490196 H 399.43233 V 98.871027 L 388.74059,83.490196 Z"
     id="letter-N"
     inkscape:connector-curvature="0" />
  <path
     style="opacity:1;fill:#f3a40f;fill-opacity:1;stroke:none;stroke-width:3.7571497;stroke-linecap:square;stroke-linejoin:miter;stroke-miterlimit:4;stroke-dasharray:none;stroke-opacity:1"
     d="M 445.25157,2.3482185 V 23.717007 h 39.71426 v 35.223278 h 21.83843 V 23.717007 h 39.15655 V 2.3482185 Z m 39.71426,81.0135385 v 53.539383 h 21.83843 V 83.361757 Z"
     id="letter-T"
     inkscape:connector-curvature="0" />
  <path
     style="opacity:1;fill:#f3a40f;fill-opacity:1;stroke:none;stroke-width:3.7571497;stroke-linecap:square;stroke-linejoin:miter;stroke-miterlimit:4;stroke-dasharray:none;stroke-opacity:1"
     d="M 569.97867,2.1317316 V 58.940285 H 591.153 V 23.104254 h 62.73779 V 2.3482185 H 591.153 V 2.1317316 Z m 0,81.2300254 V 137.23502 H 591.153 v -0.19813 h 62.73779 V 118.87122 H 591.153 V 83.361757 Z"
     id="letter-E"
     inkscape:connector-curvature="0" />
  <path
     style="opacity:1;fill:#f3a40f;fill-opacity:1;stroke:none;stroke-width:3.7571497;stroke-linecap:square;stroke-linejoin:miter;stroke-miterlimit:4;stroke-dasharray:none;stroke-opacity:1"
     d="M 747.67278,0 C 738.17301,0 728.2237,0.86175863 719.51613,3.7938382 710.80838,6.7255421 703.34161,11.72736 697.14569,18.018895 684.75348,30.602341 679.1048,50.333576 679.1048,69.624679 c 0,19.291254 6.04131,39.580111 18.49212,52.222161 6.22541,6.32103 13.88549,11.56086 22.53201,14.39019 8.64651,2.82932 18.2789,3.24713 27.77867,3.24715 12.31462,0 24.21483,-3.71657 34.87461,-9.68274 l -0.0657,-23.31341 c -10.09208,8.08426 -22.44032,13.38484 -34.24003,13.38484 -13.27363,0.32312 -24.6546,-2.17268 -33.53913,-11.05496 -8.50469,-8.63543 -13.29318,-25.979467 -13.29318,-39.156542 2.00275,-21.208171 6.61296,-39.935195 26.10938,-46.711214 5.94775,-2.002749 14.23772,-3.335203 20.72669,-3.335203 11.727,0 23.99109,4.786552 34.04917,12.291459 L 782.47488,8.8094827 C 771.81434,3.3432057 759.93743,0 747.67353,0 Z"
     id="letter-C"
     inkscape:connector-curvature="0" />
  <path
     style="opacity:1;fill:#f3a40f;fill-opacity:1;stroke:none;stroke-width:3.7571497;stroke-linecap:square;stroke-linejoin:miter;stroke-miterlimit:4;stroke-dasharray:none;stroke-opacity:1"
     d="M 813.01938,1.9666236 V 137.12495 h 21.75389 V 76.852778 h 67.41229 v 60.272172 h 22.24195 V 1.9666236 H 902.18556 V 56.59573 H 834.77327 V 1.9666236 Z"
     id="letter-H"
     inkscape:connector-curvature="0" />
  <path
     style="opacity:1;fill:#f3a40f;fill-opacity:1;stroke:none;stroke-width:3.7571497;stroke-linecap:square;stroke-linejoin:miter;stroke-miterlimit:4;stroke-dasharray:none;stroke-opacity:1"
     d="m 961.17356,108.53906 a 18.126458,18.126458 0 0 0 -18.129,18.12531 18.126458,18.126458 0 0 0 18.129,18.12898 18.126458,18.126458 0 0 0 18.12524,-18.12898 18.126458,18.126458 0 0 0 -18.12524,-18.12531 z"
     id="dot"
     inkscape:connector-curvature="0" />
</svg>
