<?xml version="1.0" encoding="UTF-8" standalone="no"?>
<svg
   xmlns:dc="http://purl.org/dc/elements/1.1/"
   xmlns:cc="http://creativecommons.org/ns#"
   xmlns:rdf="http://www.w3.org/1999/02/22-rdf-syntax-ns#"
   xmlns:svg="http://www.w3.org/2000/svg"
   xmlns="http://www.w3.org/2000/svg"
   xmlns:sodipodi="http://sodipodi.sourceforge.net/DTD/sodipodi-0.dtd"
   xmlns:inkscape="http://www.inkscape.org/namespaces/inkscape"
   version="1.1"
   preserveAspectRatio="xMidYMid meet"
   viewBox="0 0 239 239.00001"
   id="svg4695"
   sodipodi:docname="clock.svg"
   inkscape:version="0.92.0 r"
   width="239"
   height="239"
   inkscape:export-filename="/Users/rinaandriana/Design/ICONS/mac.png"
   inkscape:export-xdpi="96"
   inkscape:export-ydpi="96">
  <metadata
     id="metadata4699">
    <rdf:RDF>
      <cc:Work
         rdf:about="">
        <dc:format>image/svg+xml</dc:format>
        <dc:type
           rdf:resource="http://purl.org/dc/dcmitype/StillImage" />
        <dc:title />
        <dc:title />
      </cc:Work>
    </rdf:RDF>
  </metadata>
  <sodipodi:namedview
     pagecolor="#ffffff"
     bordercolor="#666666"
     borderopacity="1"
     objecttolerance="10"
     gridtolerance="10"
     guidetolerance="10"
     inkscape:pageopacity="0"
     inkscape:pageshadow="2"
     inkscape:window-width="1920"
     inkscape:window-height="1035"
     id="namedview4697"
     showgrid="false"
     inkscape:zoom="1.7536248"
     inkscape:cx="180.96088"
     inkscape:cy="126.42635"
     inkscape:window-x="1440"
     inkscape:window-y="23"
     inkscape:window-maximized="0"
     inkscape:current-layer="svg4695"
     fit-margin-top="0"
     fit-margin-left="0"
     fit-margin-right="0"
     fit-margin-bottom="0"
     showguides="true"
     inkscape:snap-midpoints="true"
     inkscape:snap-smooth-nodes="true"
     inkscape:object-paths="true"
     inkscape:object-nodes="true"
     inkscape:snap-intersection-paths="true"
     inkscape:guide-bbox="true"
     inkscape:snap-nodes="false" />
  <defs
     id="defs4545">
    <path
       d="m 276.05,366.91 c 10.24,0 18.54,8.3 18.54,18.54 0,34.79 0,120.62 0,155.41 0,10.24 -8.3,18.54 -18.54,18.54 -54.56,0 -199.7,0 -254.26,0 -10.24,0 -18.54,-8.3 -18.54,-18.54 0,-34.79 0,-120.62 0,-155.41 0,-10.24 8.3,-18.54 18.54,-18.54 54.56,0 199.7,0 254.26,0 z"
       id="c2kEIPcwb3"
       inkscape:connector-curvature="0" />
    <path
       d="M 295.19,385.46 3.25,386.29"
       id="h1BqjTp58G"
       inkscape:connector-curvature="0" />
    <path
       d="m 179.23,584.43 c 0,1.97 1.02,3.8 2.7,4.83 1.36,0.84 3.36,2.07 4.87,3 1.18,0.72 1.89,2 1.89,3.38 0,0.8 0,-0.59 0,-0.18 0,2.29 -1.86,4.16 -4.15,4.16 -15.42,0.03 -57.99,0.12 -73.53,0.15 -2.01,0 -3.69,-1.52 -3.9,-3.52 -0.06,-0.63 0.07,0.71 0,0 -0.19,-1.93 0.8,-3.78 2.52,-4.69 1.5,-0.79 3.82,-2.02 5.49,-2.9 1.25,-0.66 2.05,-1.93 2.1,-3.34 0.09,-2.75 0.25,-7.23 0.34,-9.6 0.08,-2.31 1.98,-4.14 4.29,-4.14 11.47,0 40.74,0 51.96,0 2.99,0 5.42,2.43 5.42,5.43 0,2.11 0,4.85 0,7.42 z"
       id="mnovqzMLB"
       inkscape:connector-curvature="0" />
    <path
       d="M 294.89,534.21 2.95,535.04"
       id="d1kLrqHX9s"
       inkscape:connector-curvature="0" />
    <path
       inkscape:connector-curvature="0"
       id="c2kEIPcwb3-6"
       d="m 276.05,366.91 c 10.24,0 18.54,8.3 18.54,18.54 0,34.79 0,120.62 0,155.41 0,10.24 -8.3,18.54 -18.54,18.54 -54.56,0 -199.7,0 -254.26,0 -10.24,0 -18.54,-8.3 -18.54,-18.54 0,-34.79 0,-120.62 0,-155.41 0,-10.24 8.3,-18.54 18.54,-18.54 54.56,0 199.7,0 254.26,0 z" />
    <path
       inkscape:connector-curvature="0"
       id="h1BqjTp58G-4"
       d="M 295.19,385.46 3.25,386.29" />
    <path
       inkscape:connector-curvature="0"
       id="mnovqzMLB-9"
       d="m 179.23,584.43 c 0,1.97 1.02,3.8 2.7,4.83 1.36,0.84 3.36,2.07 4.87,3 1.18,0.72 1.89,2 1.89,3.38 0,0.8 0,-0.59 0,-0.18 0,2.29 -1.86,4.16 -4.15,4.16 -15.42,0.03 -57.99,0.12 -73.53,0.15 -2.01,0 -3.69,-1.52 -3.9,-3.52 -0.06,-0.63 0.07,0.71 0,0 -0.19,-1.93 0.8,-3.78 2.52,-4.69 1.5,-0.79 3.82,-2.02 5.49,-2.9 1.25,-0.66 2.05,-1.93 2.1,-3.34 0.09,-2.75 0.25,-7.23 0.34,-9.6 0.08,-2.31 1.98,-4.14 4.29,-4.14 11.47,0 40.74,0 51.96,0 2.99,0 5.42,2.43 5.42,5.43 0,2.11 0,4.85 0,7.42 z" />
    <path
       inkscape:connector-curvature="0"
       id="d1kLrqHX9s-0"
       d="M 294.89,534.21 2.95,535.04" />
  </defs>
  <circle
     style="opacity:1;fill:none;fill-opacity:1;stroke:#ffad33;stroke-width:3.5;stroke-linecap:butt;stroke-linejoin:miter;stroke-miterlimit:4;stroke-dasharray:none;stroke-opacity:1"
     id="path4534"
     cx="119.5"
     cy="119.5"
     r="118.2361" />
  <circle
     r="13.2919"
     cy="119.5"
     cx="119.5"
     id="circle4615"
     style="opacity:1;fill:none;fill-opacity:0.9705883;stroke:#ffad33;stroke-width:3.5;stroke-linecap:butt;stroke-linejoin:miter;stroke-miterlimit:4;stroke-dasharray:none;stroke-opacity:1" />
  <path
     style="fill:none;stroke:#ffad33;stroke-width:3.5;stroke-linecap:butt;stroke-linejoin:miter;stroke-miterlimit:4;stroke-dasharray:none;stroke-opacity:1"
     d="M 119.5,106.2081 V 30.289451"
     id="path4619"
     inkscape:connector-curvature="0" />
  <path
     inkscape:connector-curvature="0"
     id="path4621"
     d="m 132.7919,119.5 h 69.29352"
     style="fill:none;stroke:#ffad33;stroke-width:3.5;stroke-linecap:butt;stroke-linejoin:miter;stroke-miterlimit:4;stroke-dasharray:none;stroke-opacity:1" />
  <circle
     style="opacity:1;fill:none;fill-opacity:0.97058835;stroke:#ffad33;stroke-width:3.5;stroke-linecap:butt;stroke-linejoin:miter;stroke-miterlimit:4;stroke-dasharray:none;stroke-opacity:1"
     id="path4644"
     cx="119.5"
     cy="225.78606"
     r="2.1462369" />
  <circle
     r="2.1462369"
     cy="13.213942"
     cx="119.5"
     id="circle4646"
     style="opacity:1;fill:none;fill-opacity:0.97058835;stroke:#ffad33;stroke-width:3.5;stroke-linecap:butt;stroke-linejoin:miter;stroke-miterlimit:4;stroke-dasharray:none;stroke-opacity:1" />
  <circle
     r="2.1462369"
     cy="119.5"
     cx="13.213942"
     id="circle4650"
     style="opacity:1;fill:none;fill-opacity:0.97058835;stroke:#ffad33;stroke-width:3.5;stroke-linecap:butt;stroke-linejoin:miter;stroke-miterlimit:4;stroke-dasharray:none;stroke-opacity:1" />
  <circle
     style="opacity:1;fill:none;fill-opacity:0.97058835;stroke:#ffad33;stroke-width:3.5;stroke-linecap:butt;stroke-linejoin:miter;stroke-miterlimit:4;stroke-dasharray:none;stroke-opacity:1"
     id="circle4652"
     cx="225.78606"
     cy="119.5"
     r="2.1462369" />
  <circle
     style="opacity:1;fill:none;fill-opacity:0.97058835;stroke:#ffad33;stroke-width:3.5;stroke-linecap:butt;stroke-linejoin:miter;stroke-miterlimit:4;stroke-dasharray:none;stroke-opacity:1"
     id="circle4654"
     cx="25.43096"
     cy="70.562859"
     r="2.1462369" />
  <circle
     r="2.1462369"
     cy="30.135462"
     cx="62.319256"
     id="circle4656"
     style="opacity:1;fill:none;fill-opacity:0.97058835;stroke:#ffad33;stroke-width:3.5;stroke-linecap:butt;stroke-linejoin:miter;stroke-miterlimit:4;stroke-dasharray:none;stroke-opacity:1" />
  <circle
     r="2.1462369"
     cy="70.947861"
     cx="-214.39551"
     id="circle4658"
     style="opacity:1;fill:none;fill-opacity:0.97058835;stroke:#ffad33;stroke-width:3.5;stroke-linecap:butt;stroke-linejoin:miter;stroke-miterlimit:4;stroke-dasharray:none;stroke-opacity:1"
     transform="scale(-1,1)" />
  <circle
     style="opacity:1;fill:none;fill-opacity:0.97058835;stroke:#ffad33;stroke-width:3.5;stroke-linecap:butt;stroke-linejoin:miter;stroke-miterlimit:4;stroke-dasharray:none;stroke-opacity:1"
     id="circle4660"
     cx="-177.50722"
     cy="30.520464"
     r="2.1462369"
     transform="scale(-1,1)" />
  <circle
     r="2.1462369"
     cy="-168.02695"
     cx="25.045958"
     id="circle4668"
     style="opacity:1;fill:none;fill-opacity:0.97058835;stroke:#ffad33;stroke-width:3.5;stroke-linecap:butt;stroke-linejoin:miter;stroke-miterlimit:4;stroke-dasharray:none;stroke-opacity:1"
     transform="scale(1,-1)" />
  <circle
     style="opacity:1;fill:none;fill-opacity:0.97058835;stroke:#ffad33;stroke-width:3.5;stroke-linecap:butt;stroke-linejoin:miter;stroke-miterlimit:4;stroke-dasharray:none;stroke-opacity:1"
     id="circle4670"
     cx="61.934254"
     cy="-208.45436"
     r="2.1462369"
     transform="scale(1,-1)" />
  <circle
     transform="scale(-1)"
     style="opacity:1;fill:none;fill-opacity:0.97058835;stroke:#ffad33;stroke-width:3.5;stroke-linecap:butt;stroke-linejoin:miter;stroke-miterlimit:4;stroke-dasharray:none;stroke-opacity:1"
     id="circle4672"
     cx="-214.0105"
     cy="-167.64195"
     r="2.1462369" />
  <circle
     transform="scale(-1)"
     r="2.1462369"
     cy="-208.06934"
     cx="-177.12221"
     id="circle4674"
     style="opacity:1;fill:none;fill-opacity:0.97058835;stroke:#ffad33;stroke-width:3.5;stroke-linecap:butt;stroke-linejoin:miter;stroke-miterlimit:4;stroke-dasharray:none;stroke-opacity:1" />
</svg>
