<?xml version="1.0" encoding="UTF-8" standalone="no"?>
<!-- Created with Inkscape (http://www.inkscape.org/) -->

<svg
   xmlns:dc="http://purl.org/dc/elements/1.1/"
   xmlns:cc="http://creativecommons.org/ns#"
   xmlns:rdf="http://www.w3.org/1999/02/22-rdf-syntax-ns#"
   xmlns:svg="http://www.w3.org/2000/svg"
   xmlns="http://www.w3.org/2000/svg"
   xmlns:sodipodi="http://sodipodi.sourceforge.net/DTD/sodipodi-0.dtd"
   xmlns:inkscape="http://www.inkscape.org/namespaces/inkscape"
   width="275.98682"
   height="260.33997"
   viewBox="0 0 73.02151 68.881617"
   version="1.1"
   id="svg4595"
   inkscape:version="0.92.0 r"
   sodipodi:docname="development-white.svg">
  <defs
     id="defs4589">
    <path
       inkscape:connector-curvature="0"
       id="c2kEIPcwb3"
       d="m 276.05,366.91 c 10.24,0 18.54,8.3 18.54,18.54 0,34.79 0,120.62 0,155.41 0,10.24 -8.3,18.54 -18.54,18.54 -54.56,0 -199.7,0 -254.26,0 -10.24,0 -18.54,-8.3 -18.54,-18.54 0,-34.79 0,-120.62 0,-155.41 0,-10.24 8.3,-18.54 18.54,-18.54 54.56,0 199.7,0 254.26,0 z" />
    <path
       inkscape:connector-curvature="0"
       id="h1BqjTp58G"
       d="M 295.19,385.46 3.25,386.29" />
    <path
       inkscape:connector-curvature="0"
       id="mnovqzMLB"
       d="m 179.23,584.43 c 0,1.97 1.02,3.8 2.7,4.83 1.36,0.84 3.36,2.07 4.87,3 1.18,0.72 1.89,2 1.89,3.38 0,0.8 0,-0.59 0,-0.18 0,2.29 -1.86,4.16 -4.15,4.16 -15.42,0.03 -57.99,0.12 -73.53,0.15 -2.01,0 -3.69,-1.52 -3.9,-3.52 -0.06,-0.63 0.07,0.71 0,0 -0.19,-1.93 0.8,-3.78 2.52,-4.69 1.5,-0.79 3.82,-2.02 5.49,-2.9 1.25,-0.66 2.05,-1.93 2.1,-3.34 0.09,-2.75 0.25,-7.23 0.34,-9.6 0.08,-2.31 1.98,-4.14 4.29,-4.14 11.47,0 40.74,0 51.96,0 2.99,0 5.42,2.43 5.42,5.43 0,2.11 0,4.85 0,7.42 z" />
    <path
       inkscape:connector-curvature="0"
       id="d1kLrqHX9s"
       d="M 294.89,534.21 2.95,535.04" />
    <path
       inkscape:connector-curvature="0"
       id="c2kEIPcwb3-4"
       d="m 276.05,366.91 c 10.24,0 18.54,8.3 18.54,18.54 0,34.79 0,120.62 0,155.41 0,10.24 -8.3,18.54 -18.54,18.54 -54.56,0 -199.7,0 -254.26,0 -10.24,0 -18.54,-8.3 -18.54,-18.54 0,-34.79 0,-120.62 0,-155.41 0,-10.24 8.3,-18.54 18.54,-18.54 54.56,0 199.7,0 254.26,0 z" />
    <path
       inkscape:connector-curvature="0"
       id="h1BqjTp58G-4"
       d="M 295.19,385.46 3.25,386.29" />
    <path
       inkscape:connector-curvature="0"
       id="mnovqzMLB-9"
       d="m 179.23,584.43 c 0,1.97 1.02,3.8 2.7,4.83 1.36,0.84 3.36,2.07 4.87,3 1.18,0.72 1.89,2 1.89,3.38 0,0.8 0,-0.59 0,-0.18 0,2.29 -1.86,4.16 -4.15,4.16 -15.42,0.03 -57.99,0.12 -73.53,0.15 -2.01,0 -3.69,-1.52 -3.9,-3.52 -0.06,-0.63 0.07,0.71 0,0 -0.19,-1.93 0.8,-3.78 2.52,-4.69 1.5,-0.79 3.82,-2.02 5.49,-2.9 1.25,-0.66 2.05,-1.93 2.1,-3.34 0.09,-2.75 0.25,-7.23 0.34,-9.6 0.08,-2.31 1.98,-4.14 4.29,-4.14 11.47,0 40.74,0 51.96,0 2.99,0 5.42,2.43 5.42,5.43 0,2.11 0,4.85 0,7.42 z" />
    <path
       inkscape:connector-curvature="0"
       id="d1kLrqHX9s-4"
       d="M 294.89,534.21 2.95,535.04" />
  </defs>
  <sodipodi:namedview
     id="base"
     pagecolor="#000000"
     bordercolor="#666666"
     borderopacity="1.0"
     inkscape:pageopacity="0"
     inkscape:pageshadow="2"
     inkscape:zoom="1.4"
     inkscape:cx="-13.692458"
     inkscape:cy="28.905165"
     inkscape:document-units="mm"
     inkscape:current-layer="layer1"
     showgrid="false"
     inkscape:window-width="1920"
     inkscape:window-height="1035"
     inkscape:window-x="1440"
     inkscape:window-y="23"
     inkscape:window-maximized="0"
     units="px"
     inkscape:snap-nodes="false"
     fit-margin-top="0"
     fit-margin-left="0"
     fit-margin-right="0"
     fit-margin-bottom="0" />
  <metadata
     id="metadata4592">
    <rdf:RDF>
      <cc:Work
         rdf:about="">
        <dc:format>image/svg+xml</dc:format>
        <dc:type
           rdf:resource="http://purl.org/dc/dcmitype/StillImage" />
        <dc:title></dc:title>
      </cc:Work>
    </rdf:RDF>
  </metadata>
  <g
     inkscape:label="Layer 1"
     inkscape:groupmode="layer"
     id="layer1"
     transform="translate(-2.7629945,-232.46712)">
    <path
       style="visibility:inherit;opacity:1;fill:none;fill-opacity:1;stroke:#ffffff;stroke-width:5.00000006;stroke-linecap:round;stroke-linejoin:round;stroke-miterlimit:4;stroke-dasharray:none;stroke-opacity:1"
       d="m 99.219769,162.20763 a 55.413906,55.413906 0 0 1 -1.742854,-1.71664 55.413906,55.413906 0 0 1 -3.655658,-4.16213 55.413906,55.413906 0 0 1 -3.221491,-4.50664 55.413906,55.413906 0 0 1 -2.755472,-4.80472 55.413906,55.413906 0 0 1 -2.26345,-5.05652 55.413906,55.413906 0 0 1 -1.745321,-5.25626 55.413906,55.413906 0 0 1 -1.215667,-5.40393 55.413906,55.413906 0 0 1 -0.665718,-5.4994 55.413906,55.413906 0 0 1 -0.138898,-3.919 55.413906,55.413906 0 0 1 0.277871,-5.53126 55.413906,55.413906 0 0 1 0.827796,-5.4791 55.413906,55.413906 0 0 1 1.369062,-5.36629 55.413906,55.413906 0 0 1 1.898733,-5.20124 55.413906,55.413906 0 0 1 2.411044,-4.989993 55.413906,55.413906 0 0 1 2.894434,-4.720819 55.413906,55.413906 0 0 1 3.351745,-4.411086 55.413906,55.413906 0 0 1 3.774301,-4.052183 55.413906,55.413906 0 0 1 4.162184,-3.655635 55.413906,55.413906 0 0 1 4.50661,-3.22148 55.413906,55.413906 0 0 1 4.80474,-2.755502 55.413906,55.413906 0 0 1 5.05655,-2.263371 55.413906,55.413906 0 0 1 5.25624,-1.745385 55.413906,55.413906 0 0 1 5.4039,-1.215648 55.413906,55.413906 0 0 1 5.49939,-0.665726 55.413906,55.413906 0 0 1 3.91904,-0.139086 h -1e-4 v 0 a 55.413906,55.413906 0 0 1 5.53123,0.277795 55.413906,55.413906 0 0 1 5.47912,0.827792 55.413906,55.413906 0 0 1 5.36627,1.369058 55.413906,55.413906 0 0 1 5.20126,1.898797 55.413906,55.413906 0 0 1 4.98998,2.410961 55.413906,55.413906 0 0 1 4.72079,2.894513 55.413906,55.413906 0 0 1 4.4111,3.351685 55.413906,55.413906 0 0 1 4.05218,3.774312 55.413906,55.413906 0 0 1 0.5732,0.599199"
       id="path4769"
       transform="matrix(0.26458333,0,0,0.26458333,0,233.76457)"
       inkscape:connector-curvature="0" />
    <path
       style="visibility:inherit;opacity:1;fill:none;fill-opacity:1;stroke:#ffffff;stroke-width:5.00000006;stroke-linecap:round;stroke-linejoin:round;stroke-miterlimit:4;stroke-dasharray:none;stroke-opacity:1"
       d="M 226.69964,34.726362 A 125.0365,125.0365 0 0 0 188.84492,8.1287433 L 169.23814,25.550287 a 101.59215,101.59215 0 0 0 -16.82527,-3.991408 l -9.57474,-24.4317357 a 125.0365,125.0365 0 0 0 -5.60936,-0.2808189 l 1e-5,-7.56e-5 A 125.0365,125.0365 0 0 0 93.294406,4.8868913 L 91.75169,31.069871 a 101.59215,101.59215 0 0 0 -14.735486,9.13183 L 52.957795,29.689209 A 125.0365,125.0365 0 0 0 23.475269,70.266028 l 17.421494,19.606791 a 101.59215,101.59215 0 0 0 -3.99139,16.825251 l -24.43179,9.57475 a 125.0365,125.0365 0 0 0 -0.280769,5.60935 125.0365,125.0365 0 0 0 8.040701,43.9344 l 26.182897,1.54269 a 101.59215,101.59215 0 0 0 9.131887,14.73551 L 45.035777,206.1532 a 125.0365,125.0365 0 0 1 13.420433,12.66453"
       id="path4765"
       transform="matrix(0.26458333,0,0,0.26458333,0,233.76457)"
       inkscape:connector-curvature="0" />
    <path
       style="visibility:inherit;opacity:1;fill:none;fill-opacity:1;stroke:#ffffff;stroke-width:5.00000006;stroke-linecap:round;stroke-linejoin:round;stroke-miterlimit:4;stroke-dasharray:none;stroke-opacity:1"
       d="m 122.05934,222.24312 9.56005,24.39426 a 125.0365,125.0365 0 0 0 5.60938,0.28082 125.0365,125.0365 0 0 0 43.93437,-8.04068 l 1.54272,-26.18294 a 101.59215,101.59215 0 0 0 14.7355,-9.13191 l 24.05839,10.51253 a 125.0365,125.0365 0 0 0 29.48253,-40.57682 l -17.4215,-19.60679 a 101.59215,101.59215 0 0 0 3.99141,-16.82521 l 24.43177,-9.57475 a 125.0365,125.0365 0 0 0 0.28078,-5.60943 125.0365,125.0365 0 0 1 -4.98953,-34.789053"
       id="path4761"
       transform="matrix(0.26458333,0,0,0.26458333,0,233.76457)"
       inkscape:connector-curvature="0" />
    <path
       style="opacity:1;fill:none;fill-opacity:1;stroke:#ffffff;stroke-width:1.32291663;stroke-linecap:square;stroke-linejoin:round;stroke-miterlimit:4;stroke-dasharray:none;stroke-opacity:1"
       d="m 64.357354,238.57632 -47.317606,47.31695 -0.0085,-0.009 -4.019113,15.00101 15.000353,-4.01977 -0.0085,-0.009 47.317606,-47.3176 z"
       id="rect4651"
       inkscape:connector-curvature="0" />
    <path
       style="fill:none;stroke:#ffffff;stroke-width:1.32291663;stroke-linecap:butt;stroke-linejoin:miter;stroke-miterlimit:4;stroke-dasharray:none;stroke-opacity:1"
       d="m 17.040055,285.89348 c 4.193098,2.0105 4.451067,1.83313 6.693926,4.00106 2.268853,2.19306 2.417181,2.62331 4.278744,6.97162"
       id="path4658"
       inkscape:connector-curvature="0"
       sodipodi:nodetypes="csc" />
    <path
       style="fill:none;stroke:#ffffff;stroke-width:1.32291663;stroke-linecap:butt;stroke-linejoin:miter;stroke-miterlimit:4;stroke-dasharray:none;stroke-opacity:1"
       d="M 21.230102,287.89732 67.454321,241.6731"
       id="path4734"
       inkscape:connector-curvature="0" />
    <path
       inkscape:connector-curvature="0"
       id="path4736"
       d="M 25.615261,292.28221 71.83948,246.05799"
       style="fill:none;stroke:#ffffff;stroke-width:1.32291663;stroke-linecap:butt;stroke-linejoin:miter;stroke-miterlimit:4;stroke-dasharray:none;stroke-opacity:1" />
    <path
       sodipodi:type="star"
       style="opacity:1;fill:#ffffff;fill-opacity:1;stroke:#ffffff;stroke-width:1.32291663;stroke-linecap:butt;stroke-linejoin:miter;stroke-miterlimit:4;stroke-dasharray:none;stroke-opacity:1"
       id="path4738"
       sodipodi:sides="3"
       sodipodi:cx="-10.852377"
       sodipodi:cy="65.213432"
       sodipodi:r1="1.7803057"
       sodipodi:r2="0.89015287"
       sodipodi:arg1="2.3561945"
       sodipodi:arg2="3.403392"
       inkscape:flatsided="true"
       inkscape:rounded="0"
       inkscape:randomized="-2.08167e-17"
       d="m -12.111243,66.472299 0.798089,-2.97851 2.1804204,2.18042 z"
       inkscape:transform-center-x="-0.8707598"
       inkscape:transform-center-y="-0.8707598"
       transform="translate(25.353401,233.55456)" />
  </g>
</svg>
