<?xml version="1.0" encoding="UTF-8" standalone="no"?>
<svg
   xmlns:dc="http://purl.org/dc/elements/1.1/"
   xmlns:cc="http://creativecommons.org/ns#"
   xmlns:rdf="http://www.w3.org/1999/02/22-rdf-syntax-ns#"
   xmlns:svg="http://www.w3.org/2000/svg"
   xmlns="http://www.w3.org/2000/svg"
   xmlns:sodipodi="http://sodipodi.sourceforge.net/DTD/sodipodi-0.dtd"
   xmlns:inkscape="http://www.inkscape.org/namespaces/inkscape"
   version="1.1"
   preserveAspectRatio="xMidYMid meet"
   viewBox="0 0 148.48104 238.99998"
   id="svg4695"
   sodipodi:docname="lightbulb.svg"
   inkscape:version="0.92.0 r"
   width="148.48103"
   height="238.99998"
   inkscape:export-filename="/Users/rinaandriana/Design/ICONS/mac.png"
   inkscape:export-xdpi="96"
   inkscape:export-ydpi="96">
  <metadata
     id="metadata4699">
    <rdf:RDF>
      <cc:Work
         rdf:about="">
        <dc:format>image/svg+xml</dc:format>
        <dc:type
           rdf:resource="http://purl.org/dc/dcmitype/StillImage" />
        <dc:title />
        <dc:title />
      </cc:Work>
    </rdf:RDF>
  </metadata>
  <sodipodi:namedview
     pagecolor="#ffffff"
     bordercolor="#666666"
     borderopacity="1"
     objecttolerance="10"
     gridtolerance="10"
     guidetolerance="10"
     inkscape:pageopacity="0"
     inkscape:pageshadow="2"
     inkscape:window-width="1920"
     inkscape:window-height="1035"
     id="namedview4697"
     showgrid="false"
     inkscape:zoom="2.4745923"
     inkscape:cx="103.184"
     inkscape:cy="116.392"
     inkscape:window-x="1440"
     inkscape:window-y="23"
     inkscape:window-maximized="0"
     inkscape:current-layer="svg4695"
     fit-margin-top="0"
     fit-margin-left="0"
     fit-margin-right="0"
     fit-margin-bottom="0"
     showguides="true"
     inkscape:snap-midpoints="true"
     inkscape:snap-smooth-nodes="true"
     inkscape:object-paths="true"
     inkscape:object-nodes="true"
     inkscape:snap-intersection-paths="true"
     inkscape:guide-bbox="true" />
  <defs
     id="defs4545">
    <path
       d="m 276.05,366.91 c 10.24,0 18.54,8.3 18.54,18.54 0,34.79 0,120.62 0,155.41 0,10.24 -8.3,18.54 -18.54,18.54 -54.56,0 -199.7,0 -254.26,0 -10.24,0 -18.54,-8.3 -18.54,-18.54 0,-34.79 0,-120.62 0,-155.41 0,-10.24 8.3,-18.54 18.54,-18.54 54.56,0 199.7,0 254.26,0 z"
       id="c2kEIPcwb3"
       inkscape:connector-curvature="0" />
    <path
       d="M 295.19,385.46 3.25,386.29"
       id="h1BqjTp58G"
       inkscape:connector-curvature="0" />
    <path
       d="m 179.23,584.43 c 0,1.97 1.02,3.8 2.7,4.83 1.36,0.84 3.36,2.07 4.87,3 1.18,0.72 1.89,2 1.89,3.38 0,0.8 0,-0.59 0,-0.18 0,2.29 -1.86,4.16 -4.15,4.16 -15.42,0.03 -57.99,0.12 -73.53,0.15 -2.01,0 -3.69,-1.52 -3.9,-3.52 -0.06,-0.63 0.07,0.71 0,0 -0.19,-1.93 0.8,-3.78 2.52,-4.69 1.5,-0.79 3.82,-2.02 5.49,-2.9 1.25,-0.66 2.05,-1.93 2.1,-3.34 0.09,-2.75 0.25,-7.23 0.34,-9.6 0.08,-2.31 1.98,-4.14 4.29,-4.14 11.47,0 40.74,0 51.96,0 2.99,0 5.42,2.43 5.42,5.43 0,2.11 0,4.85 0,7.42 z"
       id="mnovqzMLB"
       inkscape:connector-curvature="0" />
    <path
       d="M 294.89,534.21 2.95,535.04"
       id="d1kLrqHX9s"
       inkscape:connector-curvature="0" />
    <path
       d="m 276.05,366.91 c 10.24,0 18.54,8.3 18.54,18.54 0,34.79 0,120.62 0,155.41 0,10.24 -8.3,18.54 -18.54,18.54 -54.56,0 -199.7,0 -254.26,0 -10.24,0 -18.54,-8.3 -18.54,-18.54 0,-34.79 0,-120.62 0,-155.41 0,-10.24 8.3,-18.54 18.54,-18.54 54.56,0 199.7,0 254.26,0 z"
       id="c2kEIPcwb3-4"
       inkscape:connector-curvature="0" />
    <path
       d="M 295.19,385.46 3.25,386.29"
       id="h1BqjTp58G-4"
       inkscape:connector-curvature="0" />
    <path
       d="m 179.23,584.43 c 0,1.97 1.02,3.8 2.7,4.83 1.36,0.84 3.36,2.07 4.87,3 1.18,0.72 1.89,2 1.89,3.38 0,0.8 0,-0.59 0,-0.18 0,2.29 -1.86,4.16 -4.15,4.16 -15.42,0.03 -57.99,0.12 -73.53,0.15 -2.01,0 -3.69,-1.52 -3.9,-3.52 -0.06,-0.63 0.07,0.71 0,0 -0.19,-1.93 0.8,-3.78 2.52,-4.69 1.5,-0.79 3.82,-2.02 5.49,-2.9 1.25,-0.66 2.05,-1.93 2.1,-3.34 0.09,-2.75 0.25,-7.23 0.34,-9.6 0.08,-2.31 1.98,-4.14 4.29,-4.14 11.47,0 40.74,0 51.96,0 2.99,0 5.42,2.43 5.42,5.43 0,2.11 0,4.85 0,7.42 z"
       id="mnovqzMLB-9"
       inkscape:connector-curvature="0" />
    <path
       d="M 294.89,534.21 2.95,535.04"
       id="d1kLrqHX9s-4"
       inkscape:connector-curvature="0" />
  </defs>
  <path
     style="opacity:1;fill:none;fill-opacity:1;stroke:#f1a32c;stroke-width:3.5;stroke-linecap:square;stroke-linejoin:miter;stroke-miterlimit:4;stroke-dasharray:none;stroke-opacity:1"
     d="M 74.24053,1.75 A 72.490573,72.382469 0 0 0 1.75,74.132412 72.490573,72.382469 0 0 0 39.60943,137.72116 h 0.81446 v 56.39663 h 67.63325 V 137.703 h 0.8486 A 72.490573,72.382469 0 0 0 146.73104,74.132412 72.490573,72.382469 0 0 0 74.24053,1.75 Z"
     id="path4532"
     inkscape:connector-curvature="0" />
  <path
     style="fill:none;stroke:#f1a32c;stroke-width:3.50000024;stroke-linecap:butt;stroke-linejoin:miter;stroke-miterlimit:4;stroke-dasharray:none;stroke-opacity:1"
     d="M 42.022458,211.32657 H 106.28013"
     id="path4535"
     inkscape:connector-curvature="0" />
  <path
     inkscape:connector-curvature="0"
     id="path4537"
     d="M 44.435367,224.28828 H 103.86722"
     style="fill:none;stroke:#f1a32c;stroke-width:3.49999976;stroke-linecap:butt;stroke-linejoin:miter;stroke-miterlimit:4;stroke-dasharray:none;stroke-opacity:1" />
  <path
     style="fill:none;stroke:#f1a32c;stroke-width:3.50000024;stroke-linecap:butt;stroke-linejoin:miter;stroke-miterlimit:4;stroke-dasharray:none;stroke-opacity:1"
     d="M 48.274387,237.24999 H 100.0282"
     id="path4539"
     inkscape:connector-curvature="0" />
  <path
     style="fill:none;stroke:#f1a32c;stroke-width:3.5;stroke-linecap:butt;stroke-linejoin:round;stroke-miterlimit:4;stroke-dasharray:none;stroke-opacity:1"
     d="m 59.69196,171.89582 c 0,0 3.00364,-40.75584 1.88286,-61.10208 C 60.65227,94.046172 54.51,60.972034 54.51,60.972034 45.08038,31.601271 39.81136,103.7639 76.48117,96.993043 101.53938,96.547205 91.1493,29.963413 85.5855,61.257148 c 0,0 -2.15497,33.571179 -1.91548,50.372362 0.30486,21.38714 4.26501,64.02643 4.26501,64.02643"
     id="path4547"
     inkscape:connector-curvature="0"
     sodipodi:nodetypes="cscccac" />
</svg>
