<?xml version="1.0" encoding="UTF-8" standalone="no"?>
<svg
   xmlns:dc="http://purl.org/dc/elements/1.1/"
   xmlns:cc="http://creativecommons.org/ns#"
   xmlns:rdf="http://www.w3.org/1999/02/22-rdf-syntax-ns#"
   xmlns:svg="http://www.w3.org/2000/svg"
   xmlns="http://www.w3.org/2000/svg"
   xmlns:sodipodi="http://sodipodi.sourceforge.net/DTD/sodipodi-0.dtd"
   xmlns:inkscape="http://www.inkscape.org/namespaces/inkscape"
   version="1.1"
   preserveAspectRatio="xMidYMid meet"
   viewBox="0 0 206.41667 241.39369"
   id="svg4695"
   sodipodi:docname="lightbulb-white.svg"
   inkscape:version="0.92.0 r"
   width="206.41666"
   height="241.39369"
   inkscape:export-filename="/Users/rinaandriana/Design/ICONS/mac.png"
   inkscape:export-xdpi="96"
   inkscape:export-ydpi="96">
  <metadata
     id="metadata4699">
    <rdf:RDF>
      <cc:Work
         rdf:about="">
        <dc:format>image/svg+xml</dc:format>
        <dc:type
           rdf:resource="http://purl.org/dc/dcmitype/StillImage" />
        <dc:title></dc:title>
        <dc:title />
      </cc:Work>
    </rdf:RDF>
  </metadata>
  <sodipodi:namedview
     pagecolor="#000000"
     bordercolor="#666666"
     borderopacity="1"
     objecttolerance="10"
     gridtolerance="10"
     guidetolerance="10"
     inkscape:pageopacity="0"
     inkscape:pageshadow="2"
     inkscape:window-width="1920"
     inkscape:window-height="1035"
     id="namedview4697"
     showgrid="false"
     inkscape:zoom="1.2372962"
     inkscape:cx="276.31288"
     inkscape:cy="116.00199"
     inkscape:window-x="1440"
     inkscape:window-y="23"
     inkscape:window-maximized="0"
     inkscape:current-layer="svg4695"
     fit-margin-top="0"
     fit-margin-left="0"
     fit-margin-right="0"
     fit-margin-bottom="0"
     showguides="true"
     inkscape:snap-midpoints="true"
     inkscape:snap-smooth-nodes="true"
     inkscape:object-paths="true"
     inkscape:object-nodes="true"
     inkscape:snap-intersection-paths="true"
     inkscape:guide-bbox="true"
     inkscape:snap-nodes="false" />
  <defs
     id="defs4545">
    <path
       d="m 276.05,366.91 c 10.24,0 18.54,8.3 18.54,18.54 0,34.79 0,120.62 0,155.41 0,10.24 -8.3,18.54 -18.54,18.54 -54.56,0 -199.7,0 -254.26,0 -10.24,0 -18.54,-8.3 -18.54,-18.54 0,-34.79 0,-120.62 0,-155.41 0,-10.24 8.3,-18.54 18.54,-18.54 54.56,0 199.7,0 254.26,0 z"
       id="c2kEIPcwb3"
       inkscape:connector-curvature="0" />
    <path
       d="M 295.19,385.46 3.25,386.29"
       id="h1BqjTp58G"
       inkscape:connector-curvature="0" />
    <path
       d="m 179.23,584.43 c 0,1.97 1.02,3.8 2.7,4.83 1.36,0.84 3.36,2.07 4.87,3 1.18,0.72 1.89,2 1.89,3.38 0,0.8 0,-0.59 0,-0.18 0,2.29 -1.86,4.16 -4.15,4.16 -15.42,0.03 -57.99,0.12 -73.53,0.15 -2.01,0 -3.69,-1.52 -3.9,-3.52 -0.06,-0.63 0.07,0.71 0,0 -0.19,-1.93 0.8,-3.78 2.52,-4.69 1.5,-0.79 3.82,-2.02 5.49,-2.9 1.25,-0.66 2.05,-1.93 2.1,-3.34 0.09,-2.75 0.25,-7.23 0.34,-9.6 0.08,-2.31 1.98,-4.14 4.29,-4.14 11.47,0 40.74,0 51.96,0 2.99,0 5.42,2.43 5.42,5.43 0,2.11 0,4.85 0,7.42 z"
       id="mnovqzMLB"
       inkscape:connector-curvature="0" />
    <path
       d="M 294.89,534.21 2.95,535.04"
       id="d1kLrqHX9s"
       inkscape:connector-curvature="0" />
    <path
       d="m 276.05,366.91 c 10.24,0 18.54,8.3 18.54,18.54 0,34.79 0,120.62 0,155.41 0,10.24 -8.3,18.54 -18.54,18.54 -54.56,0 -199.7,0 -254.26,0 -10.24,0 -18.54,-8.3 -18.54,-18.54 0,-34.79 0,-120.62 0,-155.41 0,-10.24 8.3,-18.54 18.54,-18.54 54.56,0 199.7,0 254.26,0 z"
       id="c2kEIPcwb3-4"
       inkscape:connector-curvature="0" />
    <path
       d="M 295.19,385.46 3.25,386.29"
       id="h1BqjTp58G-4"
       inkscape:connector-curvature="0" />
    <path
       d="m 179.23,584.43 c 0,1.97 1.02,3.8 2.7,4.83 1.36,0.84 3.36,2.07 4.87,3 1.18,0.72 1.89,2 1.89,3.38 0,0.8 0,-0.59 0,-0.18 0,2.29 -1.86,4.16 -4.15,4.16 -15.42,0.03 -57.99,0.12 -73.53,0.15 -2.01,0 -3.69,-1.52 -3.9,-3.52 -0.06,-0.63 0.07,0.71 0,0 -0.19,-1.93 0.8,-3.78 2.52,-4.69 1.5,-0.79 3.82,-2.02 5.49,-2.9 1.25,-0.66 2.05,-1.93 2.1,-3.34 0.09,-2.75 0.25,-7.23 0.34,-9.6 0.08,-2.31 1.98,-4.14 4.29,-4.14 11.47,0 40.74,0 51.96,0 2.99,0 5.42,2.43 5.42,5.43 0,2.11 0,4.85 0,7.42 z"
       id="mnovqzMLB-9"
       inkscape:connector-curvature="0" />
    <path
       d="M 294.89,534.21 2.95,535.04"
       id="d1kLrqHX9s-4"
       inkscape:connector-curvature="0" />
  </defs>
  <path
     style="opacity:1;fill:none;fill-opacity:1;stroke:#fffbf3;stroke-width:4;stroke-linecap:square;stroke-linejoin:round;stroke-miterlimit:4;stroke-dasharray:none;stroke-opacity:1"
     d="m 103.9709,27.22426 c -40.035404,2.4e-5 -72.490503,32.406717 -72.490535,72.382412 -1.4e-4,26.521148 15.340131,50.918718 38.67389,63.588748 v 63.29277 c 0,5.63778 6.299504,12.76939 11.705909,12.9051 h 43.845606 c 6.20487,0.0629 12.08174,-7.7406 12.08174,-12.50099 v -63.71504 c 23.37865,-12.7622 38.18789,-41.30419 38.6739,-63.570588 -3e-5,-39.975687 -32.45512,-72.382377 -72.49051,-72.382412 z"
     id="path4532"
     inkscape:connector-curvature="0"
     sodipodi:nodetypes="cccccccccc" />
  <path
     style="fill:none;stroke:#fffbf3;stroke-width:4;stroke-linecap:butt;stroke-linejoin:miter;stroke-miterlimit:4;stroke-dasharray:none;stroke-opacity:1"
     d="M 70.154255,216.46879 H 137.78751"
     id="path5970"
     inkscape:connector-curvature="0" />
  <path
     style="fill:none;stroke:#fffbf3;stroke-width:4;stroke-linecap:butt;stroke-linejoin:miter;stroke-miterlimit:4;stroke-dasharray:none;stroke-opacity:1"
     d="m 70.154255,194.8418 67.633255,1e-5"
     id="path5972"
     inkscape:connector-curvature="0" />
  <path
     style="fill:none;stroke:#fffbf3;stroke-width:3.99999976;stroke-linecap:butt;stroke-linejoin:miter;stroke-miterlimit:4;stroke-dasharray:none;stroke-opacity:1"
     d="M 103.97088,194.75705 V 116.74138 L 75.813016,89.543111"
     id="path5974"
     inkscape:connector-curvature="0" />
  <path
     inkscape:connector-curvature="0"
     id="path5976"
     d="M 103.97088,194.75705 V 116.74138 L 132.12875,89.543111"
     style="fill:none;stroke:#fffbf3;stroke-width:3.99999976;stroke-linecap:butt;stroke-linejoin:miter;stroke-miterlimit:4;stroke-dasharray:none;stroke-opacity:1" />
  <path
     style="opacity:1;fill:none;fill-opacity:1;stroke:#fffbf3;stroke-width:3.99999976;stroke-linecap:round;stroke-linejoin:round;stroke-miterlimit:4;stroke-dasharray:none;stroke-opacity:1"
     d="m 188.99174,126.15062 15.44746,4.18244 v 0 l -15.46859,-4.1015"
     id="path6086"
     inkscape:connector-curvature="0" />
  <path
     style="opacity:1;fill:none;fill-opacity:1;stroke:#fffbf3;stroke-width:3.99999976;stroke-linecap:round;stroke-linejoin:round;stroke-miterlimit:4;stroke-dasharray:none;stroke-opacity:1"
     d="m 189.03884,80.167009 15.40036,-4.083408 -15.38248,4.16484"
     id="path6082"
     inkscape:connector-curvature="0" />
  <path
     style="opacity:1;fill:none;fill-opacity:1;stroke:#fffbf3;stroke-width:3.99999976;stroke-linecap:round;stroke-linejoin:round;stroke-miterlimit:4;stroke-dasharray:none;stroke-opacity:1"
     d="m 166.00364,40.354063 11.31083,-11.25187 -11.24978,11.308728"
     id="path6078"
     inkscape:connector-curvature="0" />
  <path
     style="opacity:1;fill:none;fill-opacity:1;stroke:#fffbf3;stroke-width:3.99999976;stroke-linecap:round;stroke-linejoin:round;stroke-miterlimit:4;stroke-dasharray:none;stroke-opacity:1"
     d="M 126.15068,17.424706 130.33306,1.9774649 126.23149,17.44633"
     id="path6074"
     inkscape:connector-curvature="0" />
  <path
     style="opacity:1;fill:none;fill-opacity:1;stroke:#fffbf3;stroke-width:3.99999976;stroke-linecap:round;stroke-linejoin:round;stroke-miterlimit:4;stroke-dasharray:none;stroke-opacity:1"
     d="M 80.167102,17.37818 76.083601,1.9774649 80.248516,17.36022"
     id="path6070"
     inkscape:connector-curvature="0" />
  <path
     style="opacity:1;fill:none;fill-opacity:1;stroke:#fffbf3;stroke-width:3.99999976;stroke-linecap:round;stroke-linejoin:round;stroke-miterlimit:4;stroke-dasharray:none;stroke-opacity:1"
     d="M 40.355861,40.414836 29.102194,29.102193 40.412053,40.353092"
     id="path6066"
     inkscape:connector-curvature="0" />
  <path
     style="opacity:1;fill:none;fill-opacity:1;stroke:#fffbf3;stroke-width:3.99999976;stroke-linecap:round;stroke-linejoin:round;stroke-miterlimit:4;stroke-dasharray:none;stroke-opacity:1"
     d="M 17.422885,80.265483 1.9774652,76.083601 17.444507,80.184687"
     id="path6062"
     inkscape:connector-curvature="0" />
  <path
     style="opacity:1;fill:none;fill-opacity:1;stroke:#fffbf3;stroke-width:3.99999976;stroke-linecap:round;stroke-linejoin:round;stroke-miterlimit:4;stroke-dasharray:none;stroke-opacity:1"
     d="M 17.378109,126.24958 1.9774652,130.33306 17.36022,126.16814"
     id="path6058"
     inkscape:connector-curvature="0" />
</svg>
