<?xml version="1.0" encoding="UTF-8" standalone="no"?>
<svg
   xmlns:dc="http://purl.org/dc/elements/1.1/"
   xmlns:cc="http://creativecommons.org/ns#"
   xmlns:rdf="http://www.w3.org/1999/02/22-rdf-syntax-ns#"
   xmlns:svg="http://www.w3.org/2000/svg"
   xmlns="http://www.w3.org/2000/svg"
   xmlns:sodipodi="http://sodipodi.sourceforge.net/DTD/sodipodi-0.dtd"
   xmlns:inkscape="http://www.inkscape.org/namespaces/inkscape"
   version="1.1"
   preserveAspectRatio="xMidYMid meet"
   viewBox="0 0 239.00001 239.00001"
   id="svg4695"
   sodipodi:docname="pencil-white.svg"
   inkscape:version="0.92.0 r"
   width="239"
   height="239.00002"
   inkscape:export-filename="/Users/rinaandriana/Design/ICONS/mac.png"
   inkscape:export-xdpi="96"
   inkscape:export-ydpi="96">
  <metadata
     id="metadata4699">
    <rdf:RDF>
      <cc:Work
         rdf:about="">
        <dc:format>image/svg+xml</dc:format>
        <dc:type
           rdf:resource="http://purl.org/dc/dcmitype/StillImage" />
        <dc:title></dc:title>
        <dc:title />
      </cc:Work>
    </rdf:RDF>
  </metadata>
  <sodipodi:namedview
     pagecolor="#000000"
     bordercolor="#666666"
     borderopacity="1"
     objecttolerance="10"
     gridtolerance="10"
     guidetolerance="10"
     inkscape:pageopacity="0"
     inkscape:pageshadow="2"
     inkscape:window-width="1920"
     inkscape:window-height="1035"
     id="namedview4697"
     showgrid="false"
     inkscape:zoom="0.8749005"
     inkscape:cx="194.7296"
     inkscape:cy="94.080588"
     inkscape:window-x="1440"
     inkscape:window-y="23"
     inkscape:window-maximized="0"
     inkscape:current-layer="svg4695"
     fit-margin-top="0"
     fit-margin-left="0"
     fit-margin-right="0"
     fit-margin-bottom="0"
     showguides="true"
     inkscape:snap-midpoints="true"
     inkscape:snap-smooth-nodes="true"
     inkscape:object-paths="true"
     inkscape:object-nodes="true"
     inkscape:snap-intersection-paths="true"
     inkscape:guide-bbox="true"
     inkscape:snap-others="false"
     inkscape:snap-nodes="true" />
  <defs
     id="defs4545">
    <path
       d="m 276.05,366.91 c 10.24,0 18.54,8.3 18.54,18.54 0,34.79 0,120.62 0,155.41 0,10.24 -8.3,18.54 -18.54,18.54 -54.56,0 -199.7,0 -254.26,0 -10.24,0 -18.54,-8.3 -18.54,-18.54 0,-34.79 0,-120.62 0,-155.41 0,-10.24 8.3,-18.54 18.54,-18.54 54.56,0 199.7,0 254.26,0 z"
       id="c2kEIPcwb3"
       inkscape:connector-curvature="0" />
    <path
       d="M 295.19,385.46 3.25,386.29"
       id="h1BqjTp58G"
       inkscape:connector-curvature="0" />
    <path
       d="m 179.23,584.43 c 0,1.97 1.02,3.8 2.7,4.83 1.36,0.84 3.36,2.07 4.87,3 1.18,0.72 1.89,2 1.89,3.38 0,0.8 0,-0.59 0,-0.18 0,2.29 -1.86,4.16 -4.15,4.16 -15.42,0.03 -57.99,0.12 -73.53,0.15 -2.01,0 -3.69,-1.52 -3.9,-3.52 -0.06,-0.63 0.07,0.71 0,0 -0.19,-1.93 0.8,-3.78 2.52,-4.69 1.5,-0.79 3.82,-2.02 5.49,-2.9 1.25,-0.66 2.05,-1.93 2.1,-3.34 0.09,-2.75 0.25,-7.23 0.34,-9.6 0.08,-2.31 1.98,-4.14 4.29,-4.14 11.47,0 40.74,0 51.96,0 2.99,0 5.42,2.43 5.42,5.43 0,2.11 0,4.85 0,7.42 z"
       id="mnovqzMLB"
       inkscape:connector-curvature="0" />
    <path
       d="M 294.89,534.21 2.95,535.04"
       id="d1kLrqHX9s"
       inkscape:connector-curvature="0" />
    <path
       d="m 276.05,366.91 c 10.24,0 18.54,8.3 18.54,18.54 0,34.79 0,120.62 0,155.41 0,10.24 -8.3,18.54 -18.54,18.54 -54.56,0 -199.7,0 -254.26,0 -10.24,0 -18.54,-8.3 -18.54,-18.54 0,-34.79 0,-120.62 0,-155.41 0,-10.24 8.3,-18.54 18.54,-18.54 54.56,0 199.7,0 254.26,0 z"
       id="c2kEIPcwb3-4"
       inkscape:connector-curvature="0" />
    <path
       d="M 295.19,385.46 3.25,386.29"
       id="h1BqjTp58G-4"
       inkscape:connector-curvature="0" />
    <path
       d="m 179.23,584.43 c 0,1.97 1.02,3.8 2.7,4.83 1.36,0.84 3.36,2.07 4.87,3 1.18,0.72 1.89,2 1.89,3.38 0,0.8 0,-0.59 0,-0.18 0,2.29 -1.86,4.16 -4.15,4.16 -15.42,0.03 -57.99,0.12 -73.53,0.15 -2.01,0 -3.69,-1.52 -3.9,-3.52 -0.06,-0.63 0.07,0.71 0,0 -0.19,-1.93 0.8,-3.78 2.52,-4.69 1.5,-0.79 3.82,-2.02 5.49,-2.9 1.25,-0.66 2.05,-1.93 2.1,-3.34 0.09,-2.75 0.25,-7.23 0.34,-9.6 0.08,-2.31 1.98,-4.14 4.29,-4.14 11.47,0 40.74,0 51.96,0 2.99,0 5.42,2.43 5.42,5.43 0,2.11 0,4.85 0,7.42 z"
       id="mnovqzMLB-9"
       inkscape:connector-curvature="0" />
    <path
       d="M 294.89,534.21 2.95,535.04"
       id="d1kLrqHX9s-4"
       inkscape:connector-curvature="0" />
  </defs>
  <path
     style="opacity:1;fill:none;fill-opacity:1;stroke:#ffffff;stroke-width:3.50000024;stroke-linecap:square;stroke-linejoin:round;stroke-miterlimit:4;stroke-dasharray:none;stroke-opacity:1"
     d="M 195.81078,1.7499276 16.972579,180.58564 l -0.0323,-0.0323 -15.1903523,56.69674 56.6942513,-15.19284 -0.0323,-0.0323 L 237.25008,43.186745 Z"
     id="rect4651"
     inkscape:connector-curvature="0" />
  <path
     style="fill:none;stroke:#ffffff;stroke-width:3.50000024;stroke-linecap:butt;stroke-linejoin:miter;stroke-miterlimit:4;stroke-dasharray:none;stroke-opacity:1"
     d="m 16.973742,180.58643 c 15.847932,7.59874 16.82293,6.9284 25.299876,15.12215 8.575192,8.28871 9.135805,9.91484 16.171633,26.34941"
     id="path4658"
     inkscape:connector-curvature="0"
     sodipodi:nodetypes="csc" />
  <path
     style="opacity:1;fill:none;fill-opacity:1;stroke:#ffffff;stroke-width:3.50000024;stroke-linecap:square;stroke-linejoin:round;stroke-miterlimit:4;stroke-dasharray:none;stroke-opacity:1"
     d="m 117.93378,162.66136 71.7962,71.7962 v 0 L 237.02295,187.16459 165.228,115.36964"
     id="path4732"
     inkscape:connector-curvature="0" />
  <path
     style="opacity:1;fill:none;fill-opacity:1;stroke:#ffffff;stroke-width:3.50000024;stroke-linecap:square;stroke-linejoin:round;stroke-miterlimit:4;stroke-dasharray:none;stroke-opacity:1"
     d="M 123.62235,73.763994 53.505685,3.647329 6.2127162,50.9403 76.328141,121.05572"
     id="path4728"
     inkscape:connector-curvature="0" />
  <path
     style="fill:none;stroke:#ffffff;stroke-width:3.50000024;stroke-linecap:butt;stroke-linejoin:miter;stroke-miterlimit:4;stroke-dasharray:none;stroke-opacity:1"
     d="m 211.32028,161.46191 -20.94857,20.94856"
     id="path4667"
     inkscape:connector-curvature="0" />
  <path
     inkscape:connector-curvature="0"
     id="path4678"
     d="M 184.48668,134.62829 163.5381,155.57686"
     style="fill:none;stroke:#ffffff;stroke-width:3.50000024;stroke-linecap:butt;stroke-linejoin:miter;stroke-miterlimit:4;stroke-dasharray:none;stroke-opacity:1" />
  <path
     style="fill:none;stroke:#ffffff;stroke-width:3.50000024;stroke-linecap:butt;stroke-linejoin:miter;stroke-miterlimit:4;stroke-dasharray:none;stroke-opacity:1"
     d="M 103.98581,54.127447 83.03725,75.076011"
     id="path4684"
     inkscape:connector-curvature="0" />
  <path
     inkscape:connector-curvature="0"
     id="path4686"
     d="M 77.152203,27.293824 56.203637,48.242392"
     style="fill:none;stroke:#ffffff;stroke-width:3.50000024;stroke-linecap:butt;stroke-linejoin:miter;stroke-miterlimit:4;stroke-dasharray:none;stroke-opacity:1" />
  <path
     style="fill:none;stroke:#ffffff;stroke-width:3.5;stroke-linecap:butt;stroke-linejoin:miter;stroke-opacity:1;stroke-miterlimit:4;stroke-dasharray:none"
     d="M 32.810142,188.16 207.51585,13.454296"
     id="path4734"
     inkscape:connector-curvature="0" />
  <path
     inkscape:connector-curvature="0"
     id="path4736"
     d="M 49.383969,204.73283 224.08968,30.02713"
     style="fill:none;stroke:#ffffff;stroke-width:3.5;stroke-linecap:butt;stroke-linejoin:miter;stroke-opacity:1;stroke-miterlimit:4;stroke-dasharray:none" />
  <path
     sodipodi:type="star"
     style="opacity:1;fill:#ea9e0e;fill-opacity:1;stroke:#ffffff;stroke-width:3.5;stroke-linecap:butt;stroke-linejoin:miter;stroke-miterlimit:4;stroke-dasharray:none;stroke-opacity:1"
     id="path4738"
     sodipodi:sides="3"
     sodipodi:cx="-41.016857"
     sodipodi:cy="246.47598"
     sodipodi:r1="6.7287145"
     sodipodi:r2="3.3643575"
     sodipodi:arg1="2.3561945"
     sodipodi:arg2="3.403392"
     inkscape:flatsided="true"
     inkscape:rounded="0"
     inkscape:randomized="-2.08167e-17"
     d="m -45.774777,251.2339 3.0164,-11.25736 8.240959,8.24096 z"
     inkscape:transform-center-x="-0.8707598"
     inkscape:transform-center-y="-0.8707598"
     transform="translate(48.394261,-17.229928)" />
  <circle
     style="opacity:1;fill:none;fill-opacity:1;stroke:#ffffff;stroke-width:3.5;stroke-linecap:butt;stroke-linejoin:miter;stroke-miterlimit:4;stroke-dasharray:none;stroke-opacity:1"
     id="path4740"
     cx="32.328556"
     cy="50.686169"
     r="6.8692503" />
</svg>
