<?xml version="1.0" encoding="UTF-8" standalone="no"?>
<svg
   xmlns:dc="http://purl.org/dc/elements/1.1/"
   xmlns:cc="http://creativecommons.org/ns#"
   xmlns:rdf="http://www.w3.org/1999/02/22-rdf-syntax-ns#"
   xmlns:svg="http://www.w3.org/2000/svg"
   xmlns="http://www.w3.org/2000/svg"
   xmlns:xlink="http://www.w3.org/1999/xlink"
   xmlns:sodipodi="http://sodipodi.sourceforge.net/DTD/sodipodi-0.dtd"
   xmlns:inkscape="http://www.inkscape.org/namespaces/inkscape"
   version="1.1"
   preserveAspectRatio="xMidYMid meet"
   viewBox="0 0 238.96811 127.56544"
   id="svg4695"
   sodipodi:docname="price.svg"
   inkscape:version="0.92.0 r"
   width="238.96811"
   height="127.56544"
   inkscape:export-filename="/Users/rinaandriana/Design/ICONS/mac.png"
   inkscape:export-xdpi="96"
   inkscape:export-ydpi="96">
  <metadata
     id="metadata4699">
    <rdf:RDF>
      <cc:Work
         rdf:about="">
        <dc:format>image/svg+xml</dc:format>
        <dc:type
           rdf:resource="http://purl.org/dc/dcmitype/StillImage" />
        <dc:title />
        <dc:title />
      </cc:Work>
    </rdf:RDF>
  </metadata>
  <sodipodi:namedview
     pagecolor="#ffffff"
     bordercolor="#666666"
     borderopacity="1"
     objecttolerance="10"
     gridtolerance="10"
     guidetolerance="10"
     inkscape:pageopacity="0"
     inkscape:pageshadow="2"
     inkscape:window-width="1920"
     inkscape:window-height="1035"
     id="namedview4697"
     showgrid="false"
     inkscape:zoom="3.5072496"
     inkscape:cx="139.1921"
     inkscape:cy="18.556733"
     inkscape:window-x="1440"
     inkscape:window-y="23"
     inkscape:window-maximized="0"
     inkscape:current-layer="svg4695"
     fit-margin-top="0"
     fit-margin-left="0"
     fit-margin-right="0"
     fit-margin-bottom="0"
     showguides="true"
     inkscape:snap-midpoints="true"
     inkscape:snap-smooth-nodes="true"
     inkscape:object-paths="true"
     inkscape:object-nodes="true"
     inkscape:snap-intersection-paths="true"
     inkscape:guide-bbox="true"
     inkscape:snap-nodes="false" />
  <defs
     id="defs4545">
    <path
       d="m 276.05,366.91 c 10.24,0 18.54,8.3 18.54,18.54 0,34.79 0,120.62 0,155.41 0,10.24 -8.3,18.54 -18.54,18.54 -54.56,0 -199.7,0 -254.26,0 -10.24,0 -18.54,-8.3 -18.54,-18.54 0,-34.79 0,-120.62 0,-155.41 0,-10.24 8.3,-18.54 18.54,-18.54 54.56,0 199.7,0 254.26,0 z"
       id="c2kEIPcwb3"
       inkscape:connector-curvature="0" />
    <path
       d="M 295.19,385.46 3.25,386.29"
       id="h1BqjTp58G"
       inkscape:connector-curvature="0" />
    <path
       d="m 179.23,584.43 c 0,1.97 1.02,3.8 2.7,4.83 1.36,0.84 3.36,2.07 4.87,3 1.18,0.72 1.89,2 1.89,3.38 0,0.8 0,-0.59 0,-0.18 0,2.29 -1.86,4.16 -4.15,4.16 -15.42,0.03 -57.99,0.12 -73.53,0.15 -2.01,0 -3.69,-1.52 -3.9,-3.52 -0.06,-0.63 0.07,0.71 0,0 -0.19,-1.93 0.8,-3.78 2.52,-4.69 1.5,-0.79 3.82,-2.02 5.49,-2.9 1.25,-0.66 2.05,-1.93 2.1,-3.34 0.09,-2.75 0.25,-7.23 0.34,-9.6 0.08,-2.31 1.98,-4.14 4.29,-4.14 11.47,0 40.74,0 51.96,0 2.99,0 5.42,2.43 5.42,5.43 0,2.11 0,4.85 0,7.42 z"
       id="mnovqzMLB"
       inkscape:connector-curvature="0" />
    <path
       d="M 294.89,534.21 2.95,535.04"
       id="d1kLrqHX9s"
       inkscape:connector-curvature="0" />
  </defs>
  <path
     style="opacity:1;fill:none;fill-opacity:1;stroke:#f3a40f;stroke-width:3.5;stroke-linecap:butt;stroke-linejoin:miter;stroke-miterlimit:4;stroke-dasharray:none;stroke-opacity:1"
     d="m 19.388412,27.201895 c 0,0 28.53655,4.262444 42.911117,4.276856 28.361474,0.02843 56.320421,-8.169798 84.681741,-8.268588 14.74394,-0.05136 44.05161,3.991732 44.05161,3.991732 v 79.264385 l -43.19624,-3.42148 c -28.51809,-2.25886 -56.626891,13.31163 -84.966864,9.40908 l -43.481364,-5.9876 z"
     id="rect5226"
     inkscape:connector-curvature="0"
     sodipodi:nodetypes="cssccsscc" />
  <path
     style="opacity:1;fill:none;fill-opacity:1;stroke:#f3a40f;stroke-width:3.5;stroke-linecap:butt;stroke-linejoin:miter;stroke-miterlimit:4;stroke-dasharray:none;stroke-opacity:1"
     d="M 28.227247 28.374834 L 28.227247 18.648184 L 28.227247 18.648184 C 28.227247 18.648184 56.763797 22.910628 71.138364 22.92504 C 99.499838 22.95347 127.45878 14.755242 155.8201 14.656452 C 170.56404 14.605092 199.87171 18.648184 199.87171 18.648184 L 199.87171 97.912569 L 191.0337 97.21253 "
     id="path5234" />
  <use
     x="0"
     y="0"
     xlink:href="#path5234"
     id="use5236"
     transform="translate(9.8808674,-8.3650634)"
     width="100%"
     height="100%" />
  <path
     style="font-style:normal;font-variant:normal;font-weight:300;font-stretch:normal;font-size:medium;line-height:25px;font-family:Roboto;-inkscape-font-specification:'Roboto, Light';font-variant-ligatures:normal;font-variant-caps:normal;font-variant-numeric:normal;font-feature-settings:normal;text-align:start;letter-spacing:0px;word-spacing:0px;writing-mode:lr-tb;text-anchor:start;fill:#f3a40f;fill-opacity:1;stroke:none;stroke-opacity:1"
     inkscape:connector-curvature="0"
     id="path5242"
     d="M 87.965847,88.360803 85.563504,88.101982 69.215847,62.004798 v 24.33594 l -2.421875,-0.260925 v -28.4375 l 2.421875,0.260925 16.367188,26.118818 v -24.35547 l 2.382812,0.256717 z" />
  <path
     style="font-style:normal;font-variant:normal;font-weight:300;font-stretch:normal;font-size:medium;line-height:25px;font-family:Roboto;-inkscape-font-specification:'Roboto, Light';font-variant-ligatures:normal;font-variant-caps:normal;font-variant-numeric:normal;font-feature-settings:normal;text-align:start;letter-spacing:0px;word-spacing:0px;writing-mode:lr-tb;text-anchor:start;fill:#f3a40f;fill-opacity:1;stroke:none;stroke-opacity:1"
     inkscape:connector-curvature="0"
     id="path5244"
     d="m 115.10661,68.133438 q 0,3.92578 -1.36719,7.19295 -1.34765,3.26291 -3.86718,5.41442 -2.51953,2.15152 -5.82032,2.872 -4.980463,1.08711 -8.046883,-1.79826 -3.0664,-2.9049 -3.0664,-8.95959 v -2.92969 q 0,-3.88671 1.36718,-7.17342 1.38672,-3.3105 3.90625,-5.46201 2.519543,-2.17104 5.800793,-2.88726 3.28125,-0.71621 5.78125,0.32013 2.51953,1.03208 3.88672,3.62429 1.36719,2.5922 1.42578,6.388 z m -2.40234,-2.56157 q 0,-5.13672 -2.32422,-7.53955 -2.32422,-2.40284 -6.36719,-1.52036 -3.96484,0.86542 -6.328133,4.31096 -2.34375,3.42173 -2.34375,8.65611 v 2.96875 q 0,5.05859 2.34375,7.51576 2.343763,2.43764 6.367193,1.55942 4.08204,-0.891 6.36719,-4.29995 2.28516,-3.42848 2.28516,-8.64332 z" />
  <path
     style="font-style:normal;font-variant:normal;font-weight:300;font-stretch:normal;font-size:medium;line-height:25px;font-family:Roboto;-inkscape-font-specification:'Roboto, Light';font-variant-ligatures:normal;font-variant-caps:normal;font-variant-numeric:normal;font-feature-settings:normal;text-align:start;letter-spacing:0px;word-spacing:0px;writing-mode:lr-tb;text-anchor:start;fill:#f3a40f;fill-opacity:1;stroke:none;stroke-opacity:1"
     inkscape:connector-curvature="0"
     id="path5246"
     d="m 127.6066,68.09531 -4.0039,3.508706 v 10.17578 l -2.40235,-0.261963 v -28.4375 l 2.40235,0.261963 v 15.33203 l 14.57031,-13.743218 3.02734,0.330115 -11.91406,11.357087 12.83203,17.180513 -2.92969,-0.319467 z" />
  <path
     sodipodi:nodetypes="cssccsscc"
     inkscape:connector-curvature="0"
     id="path4507"
     d="m 24.658582,32.557112 c 0,0 26.794125,3.704979 40.290988,3.717506 26.629738,0.02471 52.96505,-8.512597 79.59463,-8.598468 13.84368,-0.04464 41.68156,3.671285 41.68156,3.671285 l -0.40323,70.107435 -41.41406,-2.973994 C 117.62874,96.557791 91.440786,111.50779 64.91475,107.51475 l -40.256168,-6.05988 z"
     style="opacity:1;fill:none;fill-opacity:1;stroke:#f3a40f;stroke-width:2;stroke-linecap:butt;stroke-linejoin:miter;stroke-miterlimit:4;stroke-dasharray:none;stroke-opacity:1" />
</svg>
