<?xml version="1.0" encoding="UTF-8" standalone="no"?>
<svg
   xmlns:dc="http://purl.org/dc/elements/1.1/"
   xmlns:cc="http://creativecommons.org/ns#"
   xmlns:rdf="http://www.w3.org/1999/02/22-rdf-syntax-ns#"
   xmlns:svg="http://www.w3.org/2000/svg"
   xmlns="http://www.w3.org/2000/svg"
   xmlns:sodipodi="http://sodipodi.sourceforge.net/DTD/sodipodi-0.dtd"
   xmlns:inkscape="http://www.inkscape.org/namespaces/inkscape"
   version="1.1"
   preserveAspectRatio="xMidYMid meet"
   viewBox="0 0 350.44043 239.00002"
   id="svg4695"
   sodipodi:docname="responsive-optimized.svg"
   inkscape:version="0.92.0 r"
   width="350.44043"
   height="239.00002"
   inkscape:export-filename="/Users/rinaandriana/webdev/repos/Raintech/public/icons/responsive.png"
   inkscape:export-xdpi="96"
   inkscape:export-ydpi="96">
  <metadata
     id="metadata4699">
    <rdf:RDF>
      <cc:Work
         rdf:about="">
        <dc:format>image/svg+xml</dc:format>
        <dc:type
           rdf:resource="http://purl.org/dc/dcmitype/StillImage" />
        <dc:title />
      </cc:Work>
    </rdf:RDF>
  </metadata>
  <sodipodi:namedview
     pagecolor="#ffffff"
     bordercolor="#666666"
     borderopacity="1"
     objecttolerance="10"
     gridtolerance="10"
     guidetolerance="10"
     inkscape:pageopacity="0"
     inkscape:pageshadow="2"
     inkscape:window-width="1920"
     inkscape:window-height="1035"
     id="namedview4697"
     showgrid="false"
     inkscape:zoom="1.0429825"
     inkscape:cx="57.75082"
     inkscape:cy="94.571138"
     inkscape:window-x="1440"
     inkscape:window-y="23"
     inkscape:window-maximized="0"
     inkscape:current-layer="g4693"
     fit-margin-top="0"
     fit-margin-left="0"
     fit-margin-right="0"
     fit-margin-bottom="0"
     inkscape:object-nodes="true"
     inkscape:snap-nodes="true"
     inkscape:snap-others="false"
     showguides="true"
     inkscape:guide-bbox="true"
     inkscape:object-paths="true"
     inkscape:snap-intersection-paths="true"
     inkscape:snap-smooth-nodes="true"
     inkscape:snap-midpoints="true" />
  <defs
     id="defs4545">
    <path
       d="m 545.47,20.73 1.59,0.66 1.46,0.88 1.29,1.08 1.12,1.26 0.9,1.41 0.67,1.56 0.42,1.66 0.15,1.75 v 84.75 h 17 l 0.92,0.08 0.88,0.21 0.82,0.33 0.75,0.45 0.66,0.56 0.57,0.64 0.46,0.73 0.35,0.8 0.21,0.85 0.08,0.9 v 130.14 l -0.08,0.9 -0.21,0.85 -0.35,0.79 -0.46,0.73 -0.57,0.65 -0.66,0.55 -0.75,0.45 -0.82,0.34 -0.88,0.21 -0.92,0.07 H 509.2 l -0.92,-0.07 -0.88,-0.21 -0.82,-0.34 -0.75,-0.45 -0.66,-0.55 -0.57,-0.65 -0.46,-0.73 -0.35,-0.79 -0.21,-0.85 -0.08,-0.9 V 208.45 H 294.64 l -1.8,-0.14 -1.71,-0.41 -1.6,-0.65 -1.45,-0.88 -1.3,-1.08 -1.11,-1.26 -0.9,-1.42 -0.68,-1.55 -0.42,-1.67 -0.14,-1.75 V 30.99 l 0.14,-1.75 0.42,-1.66 0.68,-1.56 0.9,-1.41 1.11,-1.26 1.3,-1.08 1.45,-0.88 1.6,-0.66 1.71,-0.41 1.8,-0.14 h 247.32 l 1.8,0.14 z"
       id="c3VrJE6Yfl"
       inkscape:connector-curvature="0" />
    <path
       d="M 553.46,44.81 H 283.53"
       id="a25btBVhx"
       inkscape:connector-curvature="0" />
    <path
       d="M 575.77,232.88 H 503.5"
       id="d3KWZqGsFa"
       inkscape:connector-curvature="0" />
    <path
       d="M 575.77,139.53 H 503.5"
       id="d1r7fRJfji"
       inkscape:connector-curvature="0" />
    <path
       d="M 503.5,173.26 H 283.53"
       id="k44O76fF7"
       inkscape:connector-curvature="0" />
    <path
       d="m 552.02,115.73 c -22.75,0.04 -36.97,0.06 -42.66,0.07 -3.21,0.01 -5.8,2.61 -5.81,5.81 0,11.6 -0.02,40.59 -0.05,86.97"
       id="c3xc6SyruS"
       inkscape:connector-curvature="0" />
    <path
       inkscape:connector-curvature="0"
       id="mnovqzMLB-5"
       d="m 179.23,584.43 c 0,1.97 1.02,3.8 2.7,4.83 1.36,0.84 3.36,2.07 4.87,3 1.18,0.72 1.89,2 1.89,3.38 0,0.8 0,-0.59 0,-0.18 0,2.29 -1.86,4.16 -4.15,4.16 -15.42,0.03 -57.99,0.12 -73.53,0.15 -2.01,0 -3.69,-1.52 -3.9,-3.52 -0.06,-0.63 0.07,0.71 0,0 -0.19,-1.93 0.8,-3.78 2.52,-4.69 1.5,-0.79 3.82,-2.02 5.49,-2.9 1.25,-0.66 2.05,-1.93 2.1,-3.34 0.09,-2.75 0.25,-7.23 0.34,-9.6 0.08,-2.31 1.98,-4.14 4.29,-4.14 11.47,0 40.74,0 51.96,0 2.99,0 5.42,2.43 5.42,5.43 0,2.11 0,4.85 0,7.42 z" />
  </defs>
  <g
     visibility="inherit"
     id="g4693"
     style="visibility:inherit"
     transform="translate(-148.72707,-207.92727)">
    <path
       style="opacity:1;fill:none;fill-opacity:1;stroke:#f1a32c;stroke-width:3.70284963;stroke-linecap:square;stroke-linejoin:miter;stroke-miterlimit:4;stroke-dasharray:none;stroke-opacity:1"
       d="M 388.11497,411.99899 H 150.57849 v -202.2203 0 h 315.70453 v 35.97305"
       id="path8385"
       inkscape:connector-curvature="0" />
    <path
       style="fill:none;stroke:#f1a32c;stroke-width:3.70284963;stroke-linecap:butt;stroke-linejoin:miter;stroke-miterlimit:4;stroke-dasharray:none;stroke-opacity:1"
       d="M 150.71301,238.27381 H 466.41758"
       id="path4621"
       inkscape:connector-curvature="0" />
    <path
       style="opacity:1;fill:none;fill-opacity:1;stroke:#f1a32c;stroke-width:3.0365541;stroke-linecap:square;stroke-linejoin:miter;stroke-miterlimit:4;stroke-dasharray:none;stroke-opacity:1"
       d="m 169.28827,223.32309 a 3.0434149,3.247967 0 0 1 -3.04341,3.24797 3.0434149,3.247967 0 0 1 -3.04342,-3.24797 3.0434149,3.247967 0 0 1 3.04342,-3.24796 3.0434149,3.247967 0 0 1 3.04341,3.24796 z"
       id="path4623"
       inkscape:connector-curvature="0" />
    <path
       style="opacity:1;fill:none;fill-opacity:1;stroke:#f1a32c;stroke-width:3.70284963;stroke-linecap:square;stroke-linejoin:miter;stroke-miterlimit:4;stroke-dasharray:none;stroke-opacity:1"
       d="m 164.17819,256.29267 h 73.12505 v 63.74818 h -73.12505 z"
       id="rect4633"
       inkscape:connector-curvature="0" />
    <path
       style="fill:none;stroke:#f1a32c;stroke-width:3.70284963;stroke-linecap:butt;stroke-linejoin:miter;stroke-miterlimit:4;stroke-dasharray:none;stroke-opacity:1"
       d="m 166.50705,346.54994 h 68.4674"
       id="path4635"
       inkscape:connector-curvature="0" />
    <path
       inkscape:connector-curvature="0"
       id="path4637"
       d="m 166.50705,365.48505 h 68.4674"
       style="fill:none;stroke:#f1a32c;stroke-width:3.70284963;stroke-linecap:butt;stroke-linejoin:miter;stroke-miterlimit:4;stroke-dasharray:none;stroke-opacity:1" />
    <path
       style="fill:none;stroke:#f1a32c;stroke-width:3.70284963;stroke-linecap:butt;stroke-linejoin:miter;stroke-miterlimit:4;stroke-dasharray:none;stroke-opacity:1"
       d="m 166.50705,384.42012 h 68.4674"
       id="path4639"
       inkscape:connector-curvature="0" />
    <path
       style="opacity:1;fill:none;fill-opacity:1;stroke:#f1a32c;stroke-width:3.70284963;stroke-linecap:square;stroke-linejoin:miter;stroke-miterlimit:4;stroke-dasharray:none;stroke-opacity:1"
       d="M 388.11527,319.14609 H 262.60793 v -62.64558 0 h 125.50734"
       id="path8398"
       inkscape:connector-curvature="0" />
    <path
       style="opacity:1;fill:none;fill-opacity:1;stroke:#f1a32c;stroke-width:3.70284963;stroke-linecap:square;stroke-linejoin:miter;stroke-miterlimit:4;stroke-dasharray:none;stroke-opacity:1"
       d="M 388.1149,385.33277 H 262.14606 v -40.32501 0 H 388.1149"
       id="path8395"
       inkscape:connector-curvature="0" />
    <path
       style="opacity:1;fill:none;fill-opacity:1;stroke:#f1a32c;stroke-width:3.39548659;stroke-linecap:square;stroke-linejoin:miter;stroke-miterlimit:4;stroke-dasharray:none;stroke-opacity:1"
       d="m 388.11592,281.69063 h 109.35447 z m 13.45884,14.20446 v 48.62235 h 83.62665 v -48.62235 z m 2.66285,68.84396 h 78.30095 z m 0,14.44165 h 78.30095 z m 0,14.44438 h 78.30095 z"
       id="rect8453"
       inkscape:connector-curvature="0" />
    <path
       inkscape:connector-curvature="0"
       id="path8356"
       d="M 388.11497,421.76565 H 497.46975"
       style="fill:none;stroke:#f1a32c;stroke-width:3.39548659;stroke-linecap:butt;stroke-linejoin:miter;stroke-miterlimit:4;stroke-dasharray:none;stroke-opacity:1" />
    <path
       style="opacity:1;fill:none;fill-opacity:1;stroke:#f1a32c;stroke-width:3.39548659;stroke-linecap:square;stroke-linejoin:miter;stroke-miterlimit:4;stroke-dasharray:none;stroke-opacity:1"
       d="m 397.17213,248.95046 h 91.24045 c 5.01767,0 9.05717,3.65613 9.05717,8.19759 v 179.88389 c 0,4.54147 -4.0395,8.19759 -9.05717,8.19759 h -91.24045 c -5.01766,0 -9.05716,-3.65612 -9.05716,-8.19759 V 257.14805 c 0,-4.54146 4.0395,-8.19759 9.05716,-8.19759 z"
       id="rect8340"
       inkscape:connector-curvature="0" />
    <path
       inkscape:connector-curvature="0"
       id="path8400"
       d="m 180.13573,223.32309 a 3.0434149,3.247967 0 0 1 -3.04341,3.24797 3.0434149,3.247967 0 0 1 -3.04342,-3.24797 3.0434149,3.247967 0 0 1 3.04342,-3.24796 3.0434149,3.247967 0 0 1 3.04341,3.24796 z"
       style="opacity:1;fill:none;fill-opacity:1;stroke:#f1a32c;stroke-width:3.0365541;stroke-linecap:square;stroke-linejoin:miter;stroke-miterlimit:4;stroke-dasharray:none;stroke-opacity:1" />
    <path
       style="opacity:1;fill:none;fill-opacity:1;stroke:#f1a32c;stroke-width:3.0365541;stroke-linecap:square;stroke-linejoin:miter;stroke-miterlimit:4;stroke-dasharray:none;stroke-opacity:1"
       d="m 190.98319,223.32309 a 3.0434149,3.247967 0 0 1 -3.04341,3.24797 3.0434149,3.247967 0 0 1 -3.04342,-3.24797 3.0434149,3.247967 0 0 1 3.04342,-3.24796 3.0434149,3.247967 0 0 1 3.04341,3.24796 z"
       id="path8402"
       inkscape:connector-curvature="0" />
  </g>
</svg>
