<?xml version="1.0" encoding="UTF-8" standalone="no"?>
<!-- Created with Inkscape (http://www.inkscape.org/) -->

<svg
   xmlns:dc="http://purl.org/dc/elements/1.1/"
   xmlns:cc="http://creativecommons.org/ns#"
   xmlns:rdf="http://www.w3.org/1999/02/22-rdf-syntax-ns#"
   xmlns:svg="http://www.w3.org/2000/svg"
   xmlns="http://www.w3.org/2000/svg"
   xmlns:sodipodi="http://sodipodi.sourceforge.net/DTD/sodipodi-0.dtd"
   xmlns:inkscape="http://www.inkscape.org/namespaces/inkscape"
   width="230.588"
   height="236.32494"
   viewBox="0 0 61.009738 62.527641"
   version="1.1"
   id="svg8"
   inkscape:version="0.92.0 r"
   sodipodi:docname="seo-white.svg">
  <defs
     id="defs2">
    <path
       inkscape:connector-curvature="0"
       id="c2kEIPcwb3"
       d="m 276.05,366.91 c 10.24,0 18.54,8.3 18.54,18.54 0,34.79 0,120.62 0,155.41 0,10.24 -8.3,18.54 -18.54,18.54 -54.56,0 -199.7,0 -254.26,0 -10.24,0 -18.54,-8.3 -18.54,-18.54 0,-34.79 0,-120.62 0,-155.41 0,-10.24 8.3,-18.54 18.54,-18.54 54.56,0 199.7,0 254.26,0 z" />
    <path
       inkscape:connector-curvature="0"
       id="h1BqjTp58G"
       d="M 295.19,385.46 3.25,386.29" />
    <path
       inkscape:connector-curvature="0"
       id="mnovqzMLB"
       d="m 179.23,584.43 c 0,1.97 1.02,3.8 2.7,4.83 1.36,0.84 3.36,2.07 4.87,3 1.18,0.72 1.89,2 1.89,3.38 0,0.8 0,-0.59 0,-0.18 0,2.29 -1.86,4.16 -4.15,4.16 -15.42,0.03 -57.99,0.12 -73.53,0.15 -2.01,0 -3.69,-1.52 -3.9,-3.52 -0.06,-0.63 0.07,0.71 0,0 -0.19,-1.93 0.8,-3.78 2.52,-4.69 1.5,-0.79 3.82,-2.02 5.49,-2.9 1.25,-0.66 2.05,-1.93 2.1,-3.34 0.09,-2.75 0.25,-7.23 0.34,-9.6 0.08,-2.31 1.98,-4.14 4.29,-4.14 11.47,0 40.74,0 51.96,0 2.99,0 5.42,2.43 5.42,5.43 0,2.11 0,4.85 0,7.42 z" />
    <path
       inkscape:connector-curvature="0"
       id="d1kLrqHX9s"
       d="M 294.89,534.21 2.95,535.04" />
  </defs>
  <sodipodi:namedview
     id="base"
     pagecolor="#000000"
     bordercolor="#666666"
     borderopacity="1.0"
     inkscape:pageopacity="0"
     inkscape:pageshadow="2"
     inkscape:zoom="2.097388"
     inkscape:cx="-0.78012788"
     inkscape:cy="93.297331"
     inkscape:document-units="mm"
     inkscape:current-layer="layer1"
     showgrid="false"
     units="px"
     fit-margin-top="0"
     fit-margin-left="0"
     fit-margin-right="0"
     fit-margin-bottom="0"
     inkscape:window-width="1920"
     inkscape:window-height="1035"
     inkscape:window-x="1440"
     inkscape:window-y="23"
     inkscape:window-maximized="0"
     inkscape:object-nodes="false"
     inkscape:snap-nodes="false" />
  <metadata
     id="metadata5">
    <rdf:RDF>
      <cc:Work
         rdf:about="">
        <dc:format>image/svg+xml</dc:format>
        <dc:type
           rdf:resource="http://purl.org/dc/dcmitype/StillImage" />
        <dc:title></dc:title>
      </cc:Work>
    </rdf:RDF>
  </metadata>
  <g
     inkscape:label="Layer 1"
     inkscape:groupmode="layer"
     id="layer1"
     transform="translate(-26.56062,-222.87296)">
    <path
       style="color:#000000;font-style:normal;font-variant:normal;font-weight:normal;font-stretch:normal;font-size:medium;line-height:normal;font-family:sans-serif;font-variant-ligatures:normal;font-variant-position:normal;font-variant-caps:normal;font-variant-numeric:normal;font-variant-alternates:normal;font-feature-settings:normal;text-indent:0;text-align:start;text-decoration:none;text-decoration-line:none;text-decoration-style:solid;text-decoration-color:#000000;letter-spacing:normal;word-spacing:normal;text-transform:none;writing-mode:lr-tb;direction:ltr;text-orientation:mixed;dominant-baseline:auto;baseline-shift:baseline;text-anchor:start;white-space:normal;shape-padding:0;clip-rule:nonzero;display:inline;overflow:visible;visibility:visible;opacity:1;isolation:auto;mix-blend-mode:normal;color-interpolation:sRGB;color-interpolation-filters:linearRGB;solid-color:#000000;solid-opacity:1;vector-effect:none;fill:none;fill-opacity:1;fill-rule:nonzero;stroke:#ffffff;stroke-width:1.32291663;stroke-linecap:round;stroke-linejoin:round;stroke-miterlimit:4;stroke-dasharray:none;stroke-dashoffset:0;stroke-opacity:1;color-rendering:auto;image-rendering:auto;shape-rendering:auto;text-rendering:auto;enable-background:accumulate"
       d="m 55.088203,233.08858 c -9.503972,-5e-5 -17.343522,7.59552 -17.343752,16.97851 -7e-5,9.3832 7.83957,16.97662 17.343752,16.97656 2.843404,-7e-5 5.498929,-0.74308 7.878906,-1.94726 l 2.626953,3.11133 a 2.9107076,2.9107076 0 0 0 0.628907,2.84765 l 11.714843,12.7461 a 2.9107076,2.9107076 0 0 0 3.908203,0.34375 l 3.923828,-2.9961 a 2.9107076,2.9107076 0 0 0 0.376954,-4.2832 L 74.431953,264.12178 a 2.9107076,2.9107076 0 0 0 -2.628906,-0.90039 l -2.722657,-3.22461 c 2.081598,-2.79691 3.351592,-6.20762 3.351563,-9.92969 -2.29e-4,-9.38278 -7.839983,-16.97827 -17.34375,-16.97851 z m 0,5.82031 c 6.437605,1.6e-4 11.521334,5.00274 11.521484,11.1582 4.8e-5,6.15561 -5.083734,11.15609 -11.521484,11.15625 -6.437892,4e-5 -11.521532,-5.0005 -11.521482,-11.15625 1.5e-4,-6.1556 5.08373,-11.15823 11.521482,-11.1582 z"
       id="path4485"
       inkscape:connector-curvature="0" />
    <path
       id="path4703"
       style="fill:none;stroke:#ffffff;stroke-width:3.5;stroke-linecap:butt;stroke-linejoin:miter;stroke-miterlimit:4;stroke-dasharray:none;stroke-opacity:1"
       d="m 105.04305,169.02845 63.38261,-1e-5 m 24.54875,0 23.16791,1e-5 m -111.09927,-34.38032 17.55658,-1e-5 m 26.62883,0 h 63.95098 m 26.4921,1e-5 h 11.63863 M 105.04305,100.26784 h 10.91403 m 22.30266,0 h 85.88841 m 22.30266,0 h 4.85936 m -146.26712,-34.380319 25.20891,2e-6 m 38.46862,0 24.96673,-10e-7 m 38.46862,0 19.15424,-10e-7 M 105.04305,31.5072 H 251.31017 M 239.80264,203.40871 H 75.133732 V 5.0840061 v 0 H 285.06604 V 192.68993"
       inkscape:connector-curvature="0"
       transform="matrix(0.26458333,0,0,0.26458333,7.1445083,221.99084)" />
  </g>
</svg>
