<?xml version="1.0" encoding="UTF-8" standalone="no"?>
<svg
   xmlns:dc="http://purl.org/dc/elements/1.1/"
   xmlns:cc="http://creativecommons.org/ns#"
   xmlns:rdf="http://www.w3.org/1999/02/22-rdf-syntax-ns#"
   xmlns:svg="http://www.w3.org/2000/svg"
   xmlns="http://www.w3.org/2000/svg"
   xmlns:xlink="http://www.w3.org/1999/xlink"
   xmlns:sodipodi="http://sodipodi.sourceforge.net/DTD/sodipodi-0.dtd"
   xmlns:inkscape="http://www.inkscape.org/namespaces/inkscape"
   version="1.1"
   preserveAspectRatio="xMidYMid meet"
   viewBox="0 0 293.23999 253.95"
   id="svg4695"
   sodipodi:docname="system.svg"
   inkscape:version="0.92.0 r"
   width="293.23999"
   height="253.95">
  <metadata
     id="metadata4699">
    <rdf:RDF>
      <cc:Work
         rdf:about="">
        <dc:format>image/svg+xml</dc:format>
        <dc:type
           rdf:resource="http://purl.org/dc/dcmitype/StillImage" />
        <dc:title />
      </cc:Work>
    </rdf:RDF>
  </metadata>
  <sodipodi:namedview
     pagecolor="#ffffff"
     bordercolor="#666666"
     borderopacity="1"
     objecttolerance="10"
     gridtolerance="10"
     guidetolerance="10"
     inkscape:pageopacity="0"
     inkscape:pageshadow="2"
     inkscape:window-width="1387"
     inkscape:window-height="855"
     id="namedview4697"
     showgrid="false"
     inkscape:zoom="1.0429825"
     inkscape:cx="31.970845"
     inkscape:cy="124.74633"
     inkscape:window-x="53"
     inkscape:window-y="23"
     inkscape:window-maximized="0"
     inkscape:current-layer="svg4695"
     fit-margin-top="0"
     fit-margin-left="0"
     fit-margin-right="0"
     fit-margin-bottom="0" />
  <defs
     id="defs4545">
    <path
       d="m 144.41,6.74 c 10.9,0 19.73,8.84 19.73,19.73 0,43.55 0,154.44 0,197.99 0,10.89 -8.83,19.73 -19.73,19.73 -22.34,0 -69.62,0 -91.96,0 -10.89,0 -19.73,-8.84 -19.73,-19.73 0,-43.55 0,-154.44 0,-197.99 0,-10.89 8.84,-19.73 19.73,-19.73 22.34,0 69.62,0 91.96,0 z"
       id="b1UtdAuKeX"
       inkscape:connector-curvature="0" />
    <path
       d=""
       id="anV7xuZMA"
       inkscape:connector-curvature="0" />
    <path
       d="M 164.14,46.49 H 32.72"
       id="g2zpKfkBqq"
       inkscape:connector-curvature="0" />
    <path
       d="M 164.14,205.75 H 32.72"
       id="aBqyxq0id"
       inkscape:connector-curvature="0" />
    <path
       d="m 102.12,27.12 c 0,1.67 -1.35,3.02 -3.02,3.02 -1.68,0 -3.03,-1.35 -3.03,-3.02 0,-1.68 1.35,-3.03 3.03,-3.03 1.67,0 3.02,1.35 3.02,3.03 z"
       id="d6zOCtor5"
       inkscape:connector-curvature="0" />
    <path
       d=""
       id="b6L43yhW6t"
       inkscape:connector-curvature="0" />
    <path
       d=""
       id="gO8nTPo35"
       inkscape:connector-curvature="0" />
    <path
       d="M 109.77,226.78 H 87.09"
       id="d4yTwjODz"
       inkscape:connector-curvature="0" />
    <path
       d="m 545.47,20.73 1.59,0.66 1.46,0.88 1.29,1.08 1.12,1.26 0.9,1.41 0.67,1.56 0.42,1.66 0.15,1.75 v 84.75 h 17 l 0.92,0.08 0.88,0.21 0.82,0.33 0.75,0.45 0.66,0.56 0.57,0.64 0.46,0.73 0.35,0.8 0.21,0.85 0.08,0.9 v 130.14 l -0.08,0.9 -0.21,0.85 -0.35,0.79 -0.46,0.73 -0.57,0.65 -0.66,0.55 -0.75,0.45 -0.82,0.34 -0.88,0.21 -0.92,0.07 H 509.2 l -0.92,-0.07 -0.88,-0.21 -0.82,-0.34 -0.75,-0.45 -0.66,-0.55 -0.57,-0.65 -0.46,-0.73 -0.35,-0.79 -0.21,-0.85 -0.08,-0.9 V 208.45 H 294.64 l -1.8,-0.14 -1.71,-0.41 -1.6,-0.65 -1.45,-0.88 -1.3,-1.08 -1.11,-1.26 -0.9,-1.42 -0.68,-1.55 -0.42,-1.67 -0.14,-1.75 V 30.99 l 0.14,-1.75 0.42,-1.66 0.68,-1.56 0.9,-1.41 1.11,-1.26 1.3,-1.08 1.45,-0.88 1.6,-0.66 1.71,-0.41 1.8,-0.14 h 247.32 l 1.8,0.14 z"
       id="c3VrJE6Yfl"
       inkscape:connector-curvature="0" />
    <path
       d="M 553.46,44.81 H 283.53"
       id="a25btBVhx"
       inkscape:connector-curvature="0" />
    <path
       d="M 575.77,232.88 H 503.5"
       id="d3KWZqGsFa"
       inkscape:connector-curvature="0" />
    <path
       d="M 575.77,139.53 H 503.5"
       id="d1r7fRJfji"
       inkscape:connector-curvature="0" />
    <path
       d="M 503.5,173.26 H 283.53"
       id="k44O76fF7"
       inkscape:connector-curvature="0" />
    <path
       d="M 466.16,257.87 H 365.59"
       id="b3wJFcsa"
       inkscape:connector-curvature="0" />
    <path
       d="M 453.52,257.87 441.47,208.45"
       id="nyToCFtYp"
       inkscape:connector-curvature="0" />
    <path
       d="m 380.79,258.01 12.04,-49.42"
       id="e6QhO3ppv7"
       inkscape:connector-curvature="0" />
    <path
       d="m 552.02,115.73 c -22.75,0.04 -36.97,0.06 -42.66,0.07 -3.21,0.01 -5.8,2.61 -5.81,5.81 0,11.6 -0.02,40.59 -0.05,86.97"
       id="c3xc6SyruS"
       inkscape:connector-curvature="0" />
    <path
       d="m 276.05,366.91 c 10.24,0 18.54,8.3 18.54,18.54 0,34.79 0,120.62 0,155.41 0,10.24 -8.3,18.54 -18.54,18.54 -54.56,0 -199.7,0 -254.26,0 -10.24,0 -18.54,-8.3 -18.54,-18.54 0,-34.79 0,-120.62 0,-155.41 0,-10.24 8.3,-18.54 18.54,-18.54 54.56,0 199.7,0 254.26,0 z"
       id="c2kEIPcwb3"
       inkscape:connector-curvature="0" />
    <path
       d="M 295.19,385.46 3.25,386.29"
       id="h1BqjTp58G"
       inkscape:connector-curvature="0" />
    <path
       d="m 179.23,584.43 c 0,1.97 1.02,3.8 2.7,4.83 1.36,0.84 3.36,2.07 4.87,3 1.18,0.72 1.89,2 1.89,3.38 0,0.8 0,-0.59 0,-0.18 0,2.29 -1.86,4.16 -4.15,4.16 -15.42,0.03 -57.99,0.12 -73.53,0.15 -2.01,0 -3.69,-1.52 -3.9,-3.52 -0.06,-0.63 0.07,0.71 0,0 -0.19,-1.93 0.8,-3.78 2.52,-4.69 1.5,-0.79 3.82,-2.02 5.49,-2.9 1.25,-0.66 2.05,-1.93 2.1,-3.34 0.09,-2.75 0.25,-7.23 0.34,-9.6 0.08,-2.31 1.98,-4.14 4.29,-4.14 11.47,0 40.74,0 51.96,0 2.99,0 5.42,2.43 5.42,5.43 0,2.11 0,4.85 0,7.42 z"
       id="mnovqzMLB"
       inkscape:connector-curvature="0" />
    <path
       d="M 294.89,534.21 2.95,535.04"
       id="d1kLrqHX9s"
       inkscape:connector-curvature="0" />
    <path
       d="m 546.62,318.44 h 0.17 l 0.17,0.01 0.17,0.01 0.16,0.02 0.16,0.04 0.15,0.04 0.16,0.05 0.15,0.05 0.14,0.07 0.15,0.08 0.14,0.08 0.13,0.09 0.14,0.09 0.13,0.11 0.14,0.11 0.13,0.11 0.12,0.13 0.13,0.13 0.12,0.13 0.12,0.15 0.12,0.14 0.12,0.16 0.12,0.16 0.12,0.16 0.11,0.17 0.12,0.17 0.11,0.18 0.11,0.18 0.11,0.19 0.11,0.19 0.11,0.19 0.11,0.2 0.11,0.2 0.11,0.2 0.11,0.21 0.11,0.21 0.11,0.21 0.11,0.22 6.06,13.65 1.25,0.18 2.78,0.52 2.75,0.63 2.72,0.73 2.68,0.83 0.22,0.08 11.64,-9.45 0.19,-0.14 0.2,-0.14 0.19,-0.13 0.19,-0.14 0.19,-0.13 0.19,-0.13 0.19,-0.13 0.18,-0.12 0.19,-0.12 0.18,-0.11 0.18,-0.12 0.19,-0.1 0.18,-0.11 0.18,-0.09 0.17,-0.1 0.18,-0.08 0.18,-0.09 0.17,-0.07 0.17,-0.08 0.17,-0.06 0.18,-0.06 0.17,-0.05 0.16,-0.05 0.17,-0.04 0.17,-0.03 0.16,-0.02 0.17,-0.02 0.16,-0.01 h 0.16 l 0.16,0.01 0.16,0.01 0.16,0.03 0.16,0.03 0.15,0.05 0.16,0.05 0.15,0.06 0.15,0.07 0.15,0.08 0.16,0.1 0.14,0.1 21.6,15.69 0.14,0.11 0.14,0.12 0.13,0.12 0.11,0.12 0.11,0.13 0.11,0.13 0.09,0.14 0.08,0.14 0.08,0.15 0.07,0.15 0.06,0.16 0.06,0.15 0.05,0.17 0.04,0.16 0.03,0.17 0.03,0.17 0.02,0.18 0.01,0.17 0.01,0.19 v 0.18 0.19 l -0.02,0.19 -0.01,0.19 -0.02,0.19 -0.03,0.2 -0.03,0.2 -0.04,0.2 -0.04,0.2 -0.05,0.2 -0.05,0.21 -0.06,0.21 -0.06,0.21 -0.07,0.21 -0.07,0.21 -0.07,0.21 -0.08,0.22 -0.08,0.21 -0.08,0.22 -0.09,0.22 -0.09,0.21 -5.38,13.96 0.2,0.26 1.62,2.29 1.53,2.36 1.45,2.42 1.35,2.49 0.56,1.13 14.86,1.54 0.23,0.02 0.23,0.02 0.23,0.03 0.23,0.02 0.23,0.03 0.22,0.03 0.22,0.04 0.22,0.03 0.21,0.04 0.21,0.05 0.21,0.04 0.21,0.06 0.2,0.05 0.19,0.06 0.19,0.06 0.19,0.06 0.18,0.07 0.18,0.07 0.18,0.08 0.16,0.08 0.17,0.08 0.16,0.09 0.15,0.1 0.14,0.09 0.15,0.11 0.13,0.1 0.13,0.11 0.12,0.12 0.12,0.12 0.11,0.13 0.1,0.13 0.09,0.13 0.09,0.14 0.08,0.15 0.08,0.15 0.06,0.16 0.06,0.16 0.05,0.17 0.04,0.17 0.03,0.18 4.18,26.36 0.02,0.18 0.02,0.18 v 0.17 0.17 l -0.02,0.16 -0.02,0.17 -0.03,0.15 -0.05,0.16 -0.05,0.15 -0.05,0.15 -0.07,0.15 -0.07,0.14 -0.09,0.14 -0.08,0.14 -0.1,0.14 -0.11,0.13 -0.11,0.13 -0.11,0.13 -0.13,0.13 -0.13,0.12 -0.13,0.13 -0.14,0.12 -0.15,0.12 -0.16,0.12 -0.15,0.12 -0.17,0.11 -0.17,0.12 -0.17,0.11 -0.18,0.11 -0.18,0.12 -0.19,0.11 -0.19,0.11 -0.19,0.11 -0.2,0.11 -0.2,0.11 -0.2,0.11 -0.21,0.11 -0.21,0.11 -0.21,0.11 -0.22,0.11 -13.65,6.05 -0.18,1.25 -0.52,2.79 -0.63,2.75 -0.73,2.72 -0.83,2.68 -0.1,0.27 9.41,11.59 0.16,0.18 0.15,0.18 0.15,0.18 0.14,0.18 0.14,0.18 0.13,0.18 0.13,0.18 0.13,0.18 0.13,0.18 0.11,0.18 0.12,0.18 0.11,0.18 0.1,0.18 0.1,0.18 0.09,0.18 0.09,0.17 0.08,0.18 0.07,0.18 0.07,0.18 0.06,0.17 0.06,0.18 0.05,0.17 0.04,0.18 0.03,0.17 0.03,0.17 0.02,0.17 0.01,0.17 0.01,0.17 v 0.17 l -0.02,0.16 -0.02,0.17 -0.02,0.16 -0.04,0.16 -0.05,0.16 -0.05,0.16 -0.07,0.16 -0.07,0.15 -0.08,0.16 -0.1,0.15 -0.1,0.15 -15.69,21.59 -0.11,0.15 -0.12,0.13 -0.11,0.13 -0.13,0.11 -0.12,0.11 -0.14,0.1 -0.13,0.09 -0.14,0.08 -0.14,0.07 -0.15,0.06 -0.15,0.06 -0.15,0.05 -0.16,0.04 -0.16,0.04 -0.17,0.02 -0.16,0.03 -0.18,0.01 -0.17,0.01 h -0.18 -0.18 l -0.18,-0.01 -0.19,-0.02 -0.19,-0.01 -0.19,-0.03 -0.2,-0.03 -0.19,-0.03 -0.2,-0.04 -0.21,-0.04 -0.2,-0.05 -0.21,-0.05 -0.21,-0.05 -0.21,-0.06 -0.22,-0.06 -0.22,-0.06 -0.22,-0.06 -0.22,-0.07 -0.22,-0.07 -0.23,-0.07 -0.22,-0.07 -0.23,-0.08 -13.94,-5.36 -0.23,0.17 -2.29,1.62 -2.35,1.54 -2.43,1.44 -2.49,1.36 -1.13,0.55 -1.54,14.86 -0.04,0.24 -0.04,0.23 -0.04,0.24 -0.04,0.23 -0.04,0.23 -0.04,0.22 -0.05,0.22 -0.04,0.22 -0.05,0.22 -0.05,0.21 -0.05,0.21 -0.05,0.2 -0.05,0.2 -0.06,0.2 -0.06,0.19 -0.06,0.19 -0.07,0.18 -0.07,0.18 -0.07,0.17 -0.07,0.17 -0.08,0.16 -0.09,0.16 -0.08,0.15 -0.09,0.14 -0.1,0.14 -0.1,0.14 -0.1,0.12 -0.11,0.13 -0.12,0.11 -0.11,0.11 -0.13,0.1 -0.13,0.09 -0.13,0.09 -0.14,0.08 -0.15,0.07 -0.15,0.07 -0.16,0.06 -0.17,0.05 -0.17,0.04 -0.18,0.03 -26.36,4.18 -0.18,0.02 -0.18,0.01 -0.17,0.01 -0.18,-0.01 -0.16,-0.01 -0.17,-0.02 -0.16,-0.04 -0.17,-0.04 -0.15,-0.04 -0.16,-0.06 -0.15,-0.07 -0.15,-0.07 -0.15,-0.08 -0.15,-0.09 -0.14,-0.09 -0.14,-0.11 -0.14,-0.11 -0.13,-0.11 -0.14,-0.12 -0.13,-0.13 -0.13,-0.14 -0.12,-0.14 -0.13,-0.15 -0.12,-0.15 -0.12,-0.16 -0.12,-0.16 -0.11,-0.17 -0.11,-0.17 -0.12,-0.18 -0.1,-0.19 -0.11,-0.18 -0.11,-0.19 -0.1,-0.2 -0.1,-0.2 -0.1,-0.2 -0.1,-0.21 -0.09,-0.21 -0.09,-0.21 -0.1,-0.21 -0.08,-0.22 -6.06,-13.66 -1.25,-0.18 -2.79,-0.51 -2.75,-0.63 -2.72,-0.73 -2.67,-0.83 -0.33,-0.12 -11.55,9.38 -0.18,0.15 -0.18,0.15 -0.18,0.15 -0.18,0.14 -0.18,0.14 -0.18,0.14 -0.18,0.13 -0.18,0.13 -0.18,0.12 -0.18,0.12 -0.18,0.11 -0.18,0.11 -0.18,0.1 -0.18,0.1 -0.17,0.09 -0.18,0.09 -0.18,0.08 -0.18,0.08 -0.17,0.06 -0.18,0.07 -0.18,0.05 -0.17,0.05 -0.17,0.04 -0.18,0.04 -0.17,0.02 -0.17,0.03 -0.17,0.01 h -0.17 -0.16 l -0.17,-0.01 -0.16,-0.02 -0.17,-0.03 -0.16,-0.04 -0.16,-0.04 -0.16,-0.06 -0.16,-0.06 -0.15,-0.08 -0.15,-0.08 -0.16,-0.09 -0.15,-0.11 -21.59,-15.69 -0.15,-0.11 -0.13,-0.11 -0.12,-0.12 -0.12,-0.12 -0.11,-0.13 -0.09,-0.13 -0.09,-0.14 -0.08,-0.14 -0.08,-0.14 -0.06,-0.15 -0.06,-0.15 -0.05,-0.15 -0.04,-0.16 -0.03,-0.16 -0.03,-0.16 -0.02,-0.17 -0.02,-0.17 -0.01,-0.18 v -0.17 -0.18 l 0.01,-0.19 0.02,-0.18 0.02,-0.19 0.02,-0.2 0.03,-0.19 0.03,-0.2 0.04,-0.2 0.04,-0.2 0.05,-0.21 0.05,-0.21 0.05,-0.21 0.06,-0.21 0.06,-0.22 0.06,-0.21 0.06,-0.22 0.07,-0.22 0.07,-0.23 0.07,-0.22 0.07,-0.23 0.08,-0.23 5.36,-13.91 -0.16,-0.2 -1.62,-2.29 -1.54,-2.36 -1.44,-2.42 -1.35,-2.49 -0.56,-1.13 -14.86,-1.55 -0.24,-0.03 -0.23,-0.04 -0.24,-0.04 -0.23,-0.04 -0.23,-0.04 -0.22,-0.05 -0.22,-0.04 -0.22,-0.04 -0.22,-0.05 -0.21,-0.05 -0.21,-0.05 -0.2,-0.05 -0.2,-0.06 -0.2,-0.05 -0.19,-0.06 -0.19,-0.07 -0.18,-0.06 -0.18,-0.07 -0.17,-0.07 -0.17,-0.08 -0.16,-0.08 -0.16,-0.08 -0.15,-0.09 -0.14,-0.09 -0.14,-0.09 -0.14,-0.1 -0.12,-0.11 -0.13,-0.11 -0.11,-0.11 -0.11,-0.12 -0.1,-0.12 -0.09,-0.13 -0.09,-0.14 -0.08,-0.14 -0.07,-0.14 -0.07,-0.16 -0.06,-0.16 -0.04,-0.16 -0.05,-0.17 -0.03,-0.18 -4.17,-26.36 -0.03,-0.19 -0.01,-0.17 -0.01,-0.18 0.01,-0.17 0.01,-0.17 0.02,-0.17 0.04,-0.16 0.04,-0.16 0.05,-0.16 0.05,-0.15 0.07,-0.16 0.07,-0.15 0.08,-0.15 0.09,-0.14 0.09,-0.14 0.11,-0.14 0.11,-0.14 0.11,-0.14 0.13,-0.13 0.12,-0.13 0.14,-0.13 0.14,-0.13 0.15,-0.12 0.15,-0.12 0.16,-0.12 0.16,-0.12 0.17,-0.12 0.18,-0.11 0.17,-0.11 0.19,-0.11 0.18,-0.1 0.2,-0.11 0.19,-0.1 0.2,-0.1 0.2,-0.1 0.21,-0.1 0.21,-0.09 0.21,-0.1 0.21,-0.09 0.22,-0.09 13.66,-6.06 0.18,-1.25 0.51,-2.78 0.63,-2.75 0.73,-2.72 0.83,-2.68 0.1,-0.27 -9.41,-11.59 -0.14,-0.2 -0.14,-0.19 -0.14,-0.2 -0.13,-0.19 -0.14,-0.19 -0.12,-0.19 -0.13,-0.18 -0.12,-0.19 -0.12,-0.19 -0.12,-0.18 -0.11,-0.18 -0.11,-0.18 -0.1,-0.18 -0.1,-0.18 -0.09,-0.18 -0.09,-0.18 -0.08,-0.17 -0.08,-0.18 -0.07,-0.17 -0.06,-0.17 -0.06,-0.17 -0.06,-0.17 -0.04,-0.17 -0.04,-0.17 -0.03,-0.16 -0.03,-0.17 -0.01,-0.16 -0.01,-0.17 v -0.16 -0.16 l 0.02,-0.16 0.03,-0.16 0.03,-0.15 0.04,-0.16 0.05,-0.15 0.07,-0.16 0.07,-0.15 0.08,-0.15 0.09,-0.15 0.11,-0.15 15.69,-21.6 0.11,-0.14 0.11,-0.14 0.12,-0.12 0.13,-0.12 0.13,-0.11 0.13,-0.1 0.14,-0.1 0.14,-0.08 0.15,-0.08 0.15,-0.07 0.15,-0.06 0.16,-0.06 0.16,-0.04 0.17,-0.04 0.17,-0.04 0.17,-0.02 0.17,-0.02 0.18,-0.02 0.18,-0.01 h 0.19 l 0.18,0.01 0.19,0.01 0.19,0.01 0.2,0.03 0.19,0.02 0.2,0.04 0.2,0.03 0.21,0.05 0.2,0.04 0.21,0.06 0.2,0.05 0.21,0.07 0.21,0.06 0.22,0.07 0.21,0.07 0.21,0.08 0.22,0.08 0.21,0.09 0.22,0.08 0.22,0.09 13.93,5.37 0.23,-0.18 2.29,-1.62 2.36,-1.53 2.42,-1.44 2.49,-1.36 1.14,-0.56 1.54,-14.85 0.02,-0.24 0.02,-0.23 0.02,-0.23 0.03,-0.23 0.02,-0.23 0.04,-0.22 0.03,-0.22 0.04,-0.22 0.04,-0.21 0.04,-0.21 0.05,-0.21 0.05,-0.2 0.05,-0.2 0.06,-0.2 0.06,-0.19 0.07,-0.19 0.06,-0.18 0.08,-0.18 0.07,-0.17 0.08,-0.17 0.09,-0.17 0.09,-0.15 0.09,-0.16 0.1,-0.14 0.1,-0.14 0.11,-0.14 0.11,-0.13 0.11,-0.12 0.12,-0.12 0.13,-0.11 0.13,-0.1 0.14,-0.09 0.14,-0.09 0.14,-0.08 0.15,-0.08 0.16,-0.06 0.16,-0.06 0.17,-0.05 0.17,-0.04 0.18,-0.03 26.37,-4.18 0.18,-0.02 z m -8.84,52.19 -1.53,0.4 -1.49,0.46 -1.47,0.52 -1.44,0.57 -1.41,0.63 -1.37,0.68 -1.34,0.73 -1.3,0.77 -1.27,0.83 -1.24,0.87 -1.19,0.92 -1.16,0.96 -1.11,1 -1.08,1.05 -1.03,1.08 -0.99,1.12 -0.95,1.16 -0.9,1.19 -0.85,1.22 -0.81,1.26 -0.76,1.29 -0.71,1.32 -0.66,1.34 -0.61,1.37 -0.56,1.4 -0.5,1.42 -0.45,1.44 -0.39,1.46 -0.34,1.49 -0.28,1.5 -0.22,1.51 -0.16,1.53 -0.1,1.55 -0.04,1.55 0.03,1.57 0.08,1.57 0.16,1.59 0.22,1.59 0.28,1.58 0.34,1.55 0.41,1.53 0.46,1.49 0.51,1.47 0.58,1.44 0.62,1.41 0.68,1.37 0.73,1.34 0.78,1.3 0.82,1.27 0.88,1.24 0.91,1.19 0.96,1.16 1.01,1.11 1.04,1.08 1.08,1.03 1.12,0.99 1.16,0.95 1.19,0.9 1.23,0.86 1.26,0.8 1.28,0.76 1.32,0.71 1.35,0.66 1.37,0.61 1.39,0.56 1.42,0.5 1.45,0.45 1.46,0.39 1.48,0.34 1.5,0.28 1.51,0.22 1.54,0.16 1.54,0.1 1.56,0.04 1.56,-0.02 1.58,-0.09 1.58,-0.16 1.59,-0.21 1.58,-0.29 1.55,-0.34 1.53,-0.4 1.5,-0.47 1.47,-0.51 1.43,-0.58 1.41,-0.62 1.37,-0.68 1.34,-0.73 1.31,-0.78 1.27,-0.82 1.23,-0.87 1.2,-0.92 1.15,-0.96 1.12,-1.01 1.07,-1.04 1.04,-1.08 0.99,-1.12 0.94,-1.16 0.9,-1.19 0.86,-1.23 0.81,-1.25 0.76,-1.29 0.71,-1.32 0.66,-1.34 0.61,-1.38 0.55,-1.39 0.51,-1.42 0.45,-1.44 0.39,-1.47 0.34,-1.48 0.27,-1.5 0.22,-1.51 0.17,-1.53 0.1,-1.55 0.03,-1.55 -0.02,-1.57 -0.09,-1.58 -0.15,-1.58 -0.22,-1.59 -0.28,-1.58 -0.35,-1.55 -0.4,-1.53 -0.46,-1.5 -0.52,-1.47 -0.57,-1.43 -0.63,-1.41 -0.68,-1.37 -0.72,-1.34 -0.78,-1.31 -0.83,-1.27 -0.87,-1.23 -0.92,-1.19 -0.96,-1.16 -1,-1.12 -1.04,-1.07 -1.09,-1.04 -1.12,-0.99 -1.16,-0.94 -1.19,-0.9 -1.22,-0.86 -1.26,-0.81 -1.29,-0.76 -1.32,-0.71 -1.34,-0.66 -1.37,-0.61 -1.4,-0.55 -1.42,-0.51 -1.44,-0.44 -1.46,-0.4 -1.48,-0.33 -1.5,-0.28 -1.52,-0.22 -1.53,-0.16 -1.54,-0.1 -1.56,-0.04 -1.57,0.02 -1.57,0.09 -1.59,0.15 -1.59,0.22 -1.58,0.28 z"
       id="a1BUzw3ICh"
       inkscape:connector-curvature="0" />
    <path
       d="m 431.59,433.03 0.13,0.03 0.13,0.04 0.12,0.04 0.12,0.05 0.12,0.05 0.11,0.06 0.1,0.07 0.1,0.07 0.1,0.08 0.1,0.08 0.09,0.09 0.09,0.09 0.08,0.1 0.08,0.11 0.08,0.1 0.08,0.12 0.07,0.12 0.07,0.12 0.07,0.12 0.06,0.13 0.07,0.14 0.06,0.14 0.06,0.14 0.05,0.15 0.06,0.15 0.05,0.15 0.06,0.15 0.05,0.16 0.05,0.17 0.04,0.16 0.05,0.17 0.05,0.17 0.04,0.17 0.05,0.18 0.04,0.18 0.04,0.17 0.05,0.19 0.04,0.18 2.01,11.49 0.91,0.37 2.01,0.92 1.97,0.99 1.92,1.07 1.87,1.13 0.15,0.1 10.6,-4.95 0.18,-0.07 0.17,-0.07 0.17,-0.07 0.17,-0.06 0.17,-0.07 0.17,-0.06 0.16,-0.06 0.17,-0.06 0.16,-0.05 0.16,-0.06 0.16,-0.05 0.16,-0.04 0.16,-0.05 0.15,-0.04 0.15,-0.03 0.15,-0.04 0.15,-0.03 0.15,-0.02 0.14,-0.02 0.14,-0.02 0.14,-0.01 0.14,-0.01 h 0.14 0.13 l 0.14,0.01 0.12,0.01 0.13,0.02 0.13,0.02 0.12,0.03 0.12,0.04 0.12,0.04 0.11,0.05 0.12,0.05 0.11,0.07 0.1,0.06 0.11,0.08 0.1,0.08 0.1,0.09 0.1,0.1 0.09,0.11 13.39,15.96 0.09,0.11 0.08,0.12 0.08,0.11 0.06,0.12 0.06,0.12 0.05,0.12 0.05,0.12 0.04,0.12 0.03,0.13 0.02,0.13 0.02,0.12 0.01,0.14 0.01,0.13 v 0.13 l -0.01,0.13 -0.01,0.14 -0.02,0.13 -0.02,0.14 -0.03,0.14 -0.04,0.14 -0.04,0.14 -0.04,0.14 -0.05,0.14 -0.05,0.15 -0.06,0.14 -0.06,0.15 -0.07,0.14 -0.07,0.15 -0.07,0.14 -0.08,0.15 -0.08,0.14 -0.09,0.15 -0.09,0.15 -0.09,0.15 -0.1,0.14 -0.1,0.15 -0.1,0.15 -0.1,0.15 -0.11,0.15 -0.11,0.14 -6.71,9.56 0.1,0.23 0.79,2.04 0.72,2.08 0.64,2.11 0.55,2.14 0.21,0.96 10.97,3.98 0.17,0.05 0.17,0.06 0.17,0.06 0.17,0.07 0.17,0.06 0.16,0.07 0.16,0.07 0.16,0.06 0.15,0.08 0.15,0.07 0.15,0.07 0.15,0.08 0.14,0.08 0.14,0.08 0.13,0.08 0.13,0.09 0.13,0.08 0.12,0.09 0.11,0.09 0.12,0.09 0.1,0.1 0.11,0.1 0.09,0.1 0.1,0.1 0.08,0.1 0.09,0.11 0.07,0.11 0.07,0.11 0.07,0.11 0.06,0.12 0.05,0.11 0.05,0.12 0.04,0.13 0.03,0.12 0.03,0.13 0.02,0.13 0.01,0.14 0.01,0.13 v 0.14 l -0.01,0.14 -1.82,20.76 -0.01,0.14 -0.03,0.14 -0.03,0.13 -0.03,0.13 -0.04,0.12 -0.05,0.12 -0.06,0.11 -0.06,0.11 -0.06,0.11 -0.08,0.1 -0.07,0.1 -0.09,0.09 -0.09,0.09 -0.09,0.09 -0.1,0.09 -0.1,0.08 -0.11,0.08 -0.11,0.07 -0.12,0.08 -0.12,0.07 -0.13,0.07 -0.13,0.06 -0.14,0.06 -0.13,0.06 -0.15,0.06 -0.14,0.06 -0.15,0.06 -0.16,0.05 -0.15,0.05 -0.16,0.05 -0.16,0.05 -0.17,0.05 -0.17,0.05 -0.17,0.04 -0.17,0.05 -0.17,0.04 -0.18,0.05 -0.18,0.04 -0.18,0.04 -0.19,0.04 -11.48,2.01 -0.38,0.92 -0.91,2.01 -1,1.97 -1.06,1.92 -1.14,1.87 -0.13,0.18 4.94,10.56 0.09,0.17 0.08,0.16 0.07,0.17 0.08,0.16 0.07,0.16 0.07,0.16 0.06,0.16 0.07,0.17 0.05,0.16 0.06,0.15 0.05,0.16 0.05,0.16 0.04,0.15 0.04,0.16 0.04,0.15 0.03,0.15 0.03,0.15 0.02,0.15 0.02,0.15 0.02,0.14 0.01,0.15 v 0.14 0.14 l -0.01,0.13 -0.01,0.14 -0.02,0.13 -0.02,0.13 -0.03,0.13 -0.03,0.13 -0.04,0.12 -0.05,0.12 -0.05,0.12 -0.06,0.12 -0.06,0.11 -0.08,0.11 -0.07,0.11 -0.09,0.1 -0.09,0.1 -0.1,0.1 -0.11,0.09 -15.96,13.4 -0.11,0.08 -0.11,0.08 -0.12,0.08 -0.11,0.06 -0.12,0.06 -0.12,0.05 -0.11,0.04 -0.13,0.03 -0.12,0.03 -0.12,0.02 -0.13,0.02 -0.12,0.01 H 450 l -0.13,-0.01 -0.13,-0.01 -0.13,-0.01 -0.13,-0.02 -0.13,-0.03 -0.14,-0.03 -0.13,-0.04 -0.14,-0.04 -0.14,-0.05 -0.14,-0.05 -0.14,-0.05 -0.14,-0.06 -0.15,-0.06 -0.14,-0.07 -0.15,-0.07 -0.15,-0.07 -0.14,-0.08 -0.15,-0.08 -0.15,-0.08 -0.16,-0.09 -0.15,-0.09 -0.15,-0.09 -0.16,-0.09 -0.16,-0.09 -0.15,-0.1 -0.16,-0.1 -0.16,-0.1 -9.54,-6.7 -0.21,0.1 -2.04,0.79 -2.07,0.72 -2.11,0.63 -2.14,0.56 -0.97,0.21 -3.97,10.96 -0.08,0.17 -0.07,0.18 -0.07,0.16 -0.08,0.17 -0.07,0.17 -0.08,0.16 -0.07,0.16 -0.08,0.16 -0.07,0.15 -0.08,0.15 -0.08,0.15 -0.07,0.14 -0.08,0.15 -0.08,0.13 -0.09,0.14 -0.08,0.13 -0.08,0.12 -0.09,0.12 -0.09,0.12 -0.08,0.11 -0.1,0.11 -0.09,0.11 -0.09,0.09 -0.1,0.1 -0.1,0.09 -0.1,0.08 -0.1,0.08 -0.11,0.07 -0.1,0.06 -0.11,0.06 -0.12,0.05 -0.11,0.05 -0.12,0.04 -0.12,0.04 -0.13,0.02 -0.13,0.02 -0.13,0.02 h -0.13 -0.14 l -0.14,-0.01 -20.76,-1.81 -0.14,-0.02 -0.14,-0.02 -0.13,-0.03 -0.13,-0.04 -0.13,-0.04 -0.12,-0.05 -0.12,-0.05 -0.11,-0.06 -0.11,-0.07 -0.11,-0.07 -0.1,-0.08 -0.1,-0.09 -0.1,-0.08 -0.09,-0.1 -0.09,-0.1 -0.09,-0.1 -0.08,-0.11 -0.08,-0.12 -0.08,-0.11 -0.08,-0.13 -0.07,-0.12 -0.07,-0.13 -0.06,-0.14 -0.07,-0.14 -0.06,-0.14 -0.06,-0.15 -0.05,-0.15 -0.05,-0.15 -0.05,-0.15 -0.05,-0.16 -0.05,-0.17 -0.04,-0.16 -0.04,-0.17 -0.04,-0.17 -0.04,-0.17 -0.03,-0.17 -0.04,-0.18 -0.03,-0.18 -0.02,-0.18 -0.03,-0.18 -2.01,-11.49 -0.91,-0.37 -2.02,-0.92 -1.96,-0.99 -1.92,-1.07 -1.87,-1.13 -0.23,-0.15 -10.52,4.92 -0.16,0.08 -0.17,0.08 -0.16,0.08 -0.16,0.07 -0.17,0.07 -0.16,0.07 -0.16,0.07 -0.16,0.06 -0.16,0.06 -0.16,0.05 -0.16,0.06 -0.15,0.04 -0.16,0.05 -0.15,0.04 -0.15,0.04 -0.16,0.03 -0.15,0.03 -0.14,0.02 -0.15,0.02 -0.15,0.01 -0.14,0.01 h -0.14 -0.14 -0.14 l -0.13,-0.01 -0.14,-0.02 -0.13,-0.02 -0.13,-0.03 -0.12,-0.04 -0.13,-0.04 -0.12,-0.04 -0.11,-0.05 -0.12,-0.06 -0.11,-0.07 -0.11,-0.07 -0.11,-0.08 -0.1,-0.08 -0.1,-0.1 -0.1,-0.1 -0.1,-0.1 -13.39,-15.97 -0.09,-0.11 -0.08,-0.11 -0.07,-0.11 -0.06,-0.12 -0.06,-0.11 -0.05,-0.12 -0.04,-0.12 -0.04,-0.12 -0.03,-0.12 -0.02,-0.13 -0.01,-0.12 -0.01,-0.13 v -0.12 -0.13 l 0.01,-0.13 0.02,-0.13 0.02,-0.14 0.03,-0.13 0.03,-0.13 0.03,-0.14 0.05,-0.14 0.04,-0.14 0.05,-0.14 0.06,-0.14 0.06,-0.14 0.06,-0.14 0.07,-0.15 0.07,-0.14 0.07,-0.15 0.08,-0.15 0.08,-0.15 0.08,-0.15 0.08,-0.15 0.09,-0.15 0.09,-0.16 0.1,-0.15 0.09,-0.16 0.1,-0.16 0.09,-0.16 0.1,-0.16 6.69,-9.52 -0.08,-0.18 -0.8,-2.04 -0.71,-2.08 -0.64,-2.11 -0.56,-2.14 -0.21,-0.96 -10.96,-3.98 -0.17,-0.07 -0.17,-0.07 -0.17,-0.08 -0.17,-0.07 -0.16,-0.08 -0.17,-0.07 -0.16,-0.08 -0.15,-0.07 -0.16,-0.08 -0.15,-0.07 -0.15,-0.08 -0.14,-0.08 -0.14,-0.08 -0.14,-0.08 -0.13,-0.08 -0.13,-0.08 -0.13,-0.09 -0.12,-0.08 -0.12,-0.09 -0.11,-0.09 -0.11,-0.09 -0.1,-0.09 -0.1,-0.1 -0.09,-0.09 -0.09,-0.1 -0.09,-0.1 -0.07,-0.1 -0.07,-0.11 -0.07,-0.11 -0.06,-0.11 -0.05,-0.11 -0.05,-0.12 -0.04,-0.12 -0.03,-0.12 -0.03,-0.12 -0.02,-0.13 -0.01,-0.13 -0.01,-0.14 v -0.13 l 0.01,-0.14 1.82,-20.76 0.01,-0.14 0.02,-0.14 0.03,-0.14 0.04,-0.12 0.04,-0.13 0.05,-0.12 0.06,-0.12 0.06,-0.11 0.06,-0.12 0.08,-0.1 0.07,-0.11 0.09,-0.1 0.09,-0.09 0.09,-0.1 0.1,-0.09 0.11,-0.08 0.1,-0.09 0.12,-0.08 0.12,-0.08 0.12,-0.07 0.13,-0.07 0.13,-0.07 0.13,-0.07 0.14,-0.06 0.14,-0.06 0.15,-0.06 0.15,-0.06 0.15,-0.05 0.16,-0.05 0.16,-0.05 0.16,-0.04 0.16,-0.05 0.17,-0.04 0.17,-0.04 0.17,-0.03 0.18,-0.04 0.17,-0.03 0.18,-0.03 0.18,-0.03 0.18,-0.03 11.49,-2.01 0.37,-0.91 0.92,-2.01 0.99,-1.97 1.07,-1.92 1.14,-1.87 0.12,-0.18 -4.94,-10.56 -0.07,-0.18 -0.07,-0.17 -0.06,-0.17 -0.07,-0.17 -0.06,-0.17 -0.07,-0.17 -0.06,-0.17 -0.05,-0.16 -0.06,-0.16 -0.05,-0.17 -0.05,-0.15 -0.05,-0.16 -0.04,-0.16 -0.04,-0.15 -0.04,-0.15 -0.03,-0.16 -0.03,-0.14 -0.03,-0.15 -0.02,-0.14 -0.02,-0.15 -0.01,-0.14 -0.01,-0.14 v -0.13 -0.14 l 0.01,-0.13 0.01,-0.13 0.02,-0.13 0.03,-0.12 0.03,-0.12 0.03,-0.12 0.04,-0.12 0.05,-0.12 0.06,-0.11 0.06,-0.11 0.07,-0.11 0.08,-0.1 0.08,-0.1 0.09,-0.1 0.1,-0.1 0.1,-0.09 15.97,-13.4 0.11,-0.09 0.11,-0.08 0.12,-0.07 0.11,-0.07 0.12,-0.05 0.12,-0.06 0.12,-0.04 0.13,-0.04 0.12,-0.03 0.13,-0.02 0.13,-0.02 0.13,-0.01 0.13,-0.01 h 0.13 l 0.14,0.01 0.13,0.01 0.14,0.02 0.14,0.02 0.14,0.03 0.14,0.03 0.14,0.04 0.14,0.05 0.14,0.04 0.14,0.06 0.15,0.06 0.14,0.06 0.15,0.06 0.14,0.08 0.15,0.07 0.14,0.08 0.15,0.08 0.15,0.09 0.14,0.09 0.15,0.09 0.15,0.09 0.15,0.1 0.14,0.1 0.15,0.11 0.15,0.11 0.15,0.11 9.54,6.69 0.21,-0.09 2.04,-0.79 2.07,-0.72 2.11,-0.64 2.14,-0.55 0.97,-0.21 3.97,-10.96 0.06,-0.18 0.06,-0.17 0.06,-0.17 0.06,-0.17 0.07,-0.16 0.06,-0.17 0.07,-0.16 0.07,-0.15 0.07,-0.16 0.07,-0.15 0.08,-0.15 0.07,-0.14 0.08,-0.15 0.08,-0.13 0.09,-0.14 0.08,-0.13 0.09,-0.12 0.09,-0.12 0.09,-0.12 0.09,-0.11 0.09,-0.11 0.1,-0.1 0.1,-0.1 0.1,-0.09 0.11,-0.09 0.1,-0.08 0.11,-0.08 0.11,-0.07 0.11,-0.07 0.12,-0.06 0.12,-0.05 0.12,-0.04 0.12,-0.04 0.13,-0.04 0.13,-0.03 0.13,-0.02 0.13,-0.01 h 0.14 0.14 l 0.14,0.01 20.76,1.81 0.14,0.02 z m -16.55,37.86 -1.23,0.02 -1.22,0.06 -1.21,0.12 -1.2,0.16 -1.18,0.21 -1.17,0.25 -1.15,0.3 -1.14,0.34 -1.12,0.39 -1.1,0.43 -1.07,0.47 -1.06,0.51 -1.04,0.55 -1.01,0.58 -0.99,0.63 -0.96,0.66 -0.93,0.7 -0.91,0.73 -0.88,0.77 -0.85,0.8 -0.82,0.83 -0.78,0.86 -0.76,0.9 -0.72,0.92 -0.68,0.95 -0.65,0.98 -0.62,1.01 -0.57,1.04 -0.53,1.05 -0.5,1.09 -0.45,1.1 -0.41,1.13 -0.37,1.15 -0.32,1.18 -0.28,1.19 -0.23,1.21 -0.19,1.23 -0.13,1.24 -0.08,1.25 -0.04,1.24 0.02,1.23 0.07,1.23 0.11,1.21 0.16,1.19 0.21,1.19 0.26,1.16 0.3,1.16 0.34,1.13 0.38,1.12 0.43,1.1 0.47,1.08 0.51,1.05 0.55,1.04 0.59,1.01 0.62,0.99 0.66,0.96 0.7,0.94 0.73,0.9 0.77,0.88 0.8,0.85 0.83,0.82 0.87,0.79 0.89,0.75 0.93,0.72 0.95,0.69 0.98,0.65 1.01,0.61 1.03,0.57 1.06,0.54 1.08,0.49 1.11,0.46 1.13,0.41 1.15,0.36 1.17,0.33 1.19,0.27 1.21,0.24 1.23,0.18 1.24,0.13 1.26,0.09 1.24,0.03 1.23,-0.02 1.22,-0.06 1.21,-0.12 1.2,-0.16 1.18,-0.21 1.17,-0.25 1.15,-0.3 1.14,-0.35 1.11,-0.38 1.1,-0.43 1.08,-0.47 1.06,-0.51 1.03,-0.55 1.01,-0.58 0.99,-0.63 0.96,-0.66 0.94,-0.7 0.91,-0.73 0.88,-0.77 0.85,-0.8 0.81,-0.83 0.79,-0.86 0.76,-0.9 0.72,-0.92 0.68,-0.95 0.65,-0.99 0.61,-1 0.58,-1.04 0.53,-1.06 0.5,-1.08 0.45,-1.1 0.41,-1.13 0.37,-1.15 0.32,-1.18 0.28,-1.19 0.23,-1.21 0.18,-1.23 0.14,-1.24 0.08,-1.25 0.03,-1.24 -0.01,-1.24 -0.07,-1.22 -0.11,-1.21 -0.17,-1.19 -0.21,-1.19 -0.25,-1.17 -0.3,-1.15 -0.34,-1.13 -0.39,-1.12 -0.43,-1.1 -0.46,-1.08 -0.51,-1.06 -0.55,-1.03 -0.59,-1.01 -0.63,-0.99 -0.66,-0.96 -0.69,-0.94 -0.74,-0.9 -0.76,-0.88 -0.8,-0.85 -0.84,-0.82 -0.86,-0.79 -0.89,-0.75 -0.93,-0.72 -0.95,-0.69 -0.98,-0.65 -1.01,-0.61 -1.03,-0.57 -1.06,-0.54 -1.08,-0.49 -1.11,-0.46 -1.13,-0.41 -1.15,-0.36 -1.17,-0.33 -1.19,-0.28 -1.21,-0.23 -1.23,-0.18 -1.25,-0.13 -1.25,-0.09 z"
       id="g6jiLI0r0A"
       inkscape:connector-curvature="0" />
  </defs>
  <g
     visibility="inherit"
     id="g4693"
     style="visibility:inherit"
     transform="translate(-113.76152,-223.02474)">
    <use
       height="100%"
       width="100%"
       y="0"
       x="0"
       style="opacity:1;fill-opacity:0;stroke:#f39d2e;stroke-width:2;stroke-miterlimit:4;stroke-dasharray:none;stroke-opacity:1"
       id="use4677"
       xlink:href="#a1BUzw3ICh"
       transform="translate(-230.50848,-94.915257)" />
    <use
       height="100%"
       width="100%"
       y="0"
       x="0"
       style="opacity:1;fill-opacity:0;stroke:#f39d2e;stroke-width:2;stroke-miterlimit:4;stroke-dasharray:none;stroke-opacity:1"
       id="use4683"
       xlink:href="#g6jiLI0r0A"
       transform="translate(-230.50848,-94.915257)" />
  </g>
</svg>
