<?xml version="1.0" encoding="UTF-8" standalone="no"?>
<!-- Created with Inkscape (http://www.inkscape.org/) -->

<svg
   xmlns:dc="http://purl.org/dc/elements/1.1/"
   xmlns:cc="http://creativecommons.org/ns#"
   xmlns:rdf="http://www.w3.org/1999/02/22-rdf-syntax-ns#"
   xmlns:svg="http://www.w3.org/2000/svg"
   xmlns="http://www.w3.org/2000/svg"
   xmlns:sodipodi="http://sodipodi.sourceforge.net/DTD/sodipodi-0.dtd"
   xmlns:inkscape="http://www.inkscape.org/namespaces/inkscape"
   width="275"
   height="239"
   viewBox="0 0 72.760415 63.235418"
   version="1.1"
   id="svg4595"
   inkscape:version="0.92.0 r"
   sodipodi:docname="system-optimized.svg">
  <defs
     id="defs4589" />
  <sodipodi:namedview
     id="base"
     pagecolor="#ffffff"
     bordercolor="#666666"
     borderopacity="1.0"
     inkscape:pageopacity="0.0"
     inkscape:pageshadow="2"
     inkscape:zoom="0.98994949"
     inkscape:cx="104.70114"
     inkscape:cy="109.40827"
     inkscape:document-units="mm"
     inkscape:current-layer="layer1"
     showgrid="false"
     inkscape:window-width="1920"
     inkscape:window-height="1035"
     inkscape:window-x="1440"
     inkscape:window-y="23"
     inkscape:window-maximized="0"
     units="px" />
  <metadata
     id="metadata4592">
    <rdf:RDF>
      <cc:Work
         rdf:about="">
        <dc:format>image/svg+xml</dc:format>
        <dc:type
           rdf:resource="http://purl.org/dc/dcmitype/StillImage" />
        <dc:title></dc:title>
      </cc:Work>
    </rdf:RDF>
  </metadata>
  <g
     inkscape:label="Layer 1"
     inkscape:groupmode="layer"
     id="layer1"
     transform="translate(0,-233.76457)">
    <path
       style="visibility:inherit;opacity:1;fill:none;fill-opacity:1;stroke:#f3a40f;stroke-width:0.92604172;stroke-linecap:round;stroke-linejoin:round;stroke-miterlimit:4;stroke-dasharray:none;stroke-opacity:1"
       d="m 51.008273,235.06831 a 21.055398,21.055398 0 0 0 -7.398285,1.354 l -0.259784,4.40905 a 17.107511,17.107511 0 0 0 -2.481368,1.53775 l -4.051292,-1.77024 a 21.055398,21.055398 0 0 0 -4.964681,6.83289 l 2.933676,3.30167 a 17.107511,17.107511 0 0 0 -0.672127,2.83327 l -4.114167,1.61233 a 21.055398,21.055398 0 0 0 -0.04728,0.94458 21.055398,21.055398 0 0 0 1.354006,7.39829 l 4.409043,0.25978 a 17.107511,17.107511 0 0 0 1.537755,2.48137 l -1.770245,4.05129 a 21.055398,21.055398 0 0 0 6.832897,4.96468 l 3.301666,-2.93367 a 17.107511,17.107511 0 0 0 2.83327,0.67213 l 1.612328,4.11416 a 21.055398,21.055398 0 0 0 0.944587,0.0473 21.055398,21.055398 0 0 0 7.398284,-1.354 l 0.259786,-4.40905 a 17.107511,17.107511 0 0 0 2.481369,-1.53776 l 4.051289,1.77025 a 21.055398,21.055398 0 0 0 4.964682,-6.83289 l -2.933677,-3.30167 a 17.107511,17.107511 0 0 0 0.672129,-2.83327 l 4.114165,-1.61233 a 21.055398,21.055398 0 0 0 0.04728,-0.94459 21.055398,21.055398 0 0 0 -1.354005,-7.39828 l -4.409044,-0.25978 a 17.107511,17.107511 0 0 0 -1.537758,-2.48137 l 1.770248,-4.05129 a 21.055398,21.055398 0 0 0 -6.832897,-4.96469 l -3.301664,2.93368 a 17.107511,17.107511 0 0 0 -2.833274,-0.67213 l -1.612329,-4.11416 a 21.055398,21.055398 0 0 0 -0.944583,-0.0473 z m 0,11.72398 a 9.33137,9.33137 0 0 1 0.931425,0.0468 9.33137,9.33137 0 0 1 0.922653,0.1394 9.33137,9.33137 0 0 1 0.903647,0.23054 9.33137,9.33137 0 0 1 0.875861,0.31974 9.33137,9.33137 0 0 1 0.840282,0.406 9.33137,9.33137 0 0 1 0.794954,0.48741 9.33137,9.33137 0 0 1 0.742802,0.56441 9.33137,9.33137 0 0 1 0.682363,0.63557 9.33137,9.33137 0 0 1 0.61559,0.70088 9.33137,9.33137 0 0 1 0.542481,0.75889 9.33137,9.33137 0 0 1 0.464007,0.80909 9.33137,9.33137 0 0 1 0.381149,0.85149 9.33137,9.33137 0 0 1 0.293899,0.88513 9.33137,9.33137 0 0 1 0.20471,0.90998 9.33137,9.33137 0 0 1 0.112102,0.92606 9.33137,9.33137 0 0 1 0.02341,0.65994 9.33137,9.33137 0 0 1 -0.04679,0.93143 9.33137,9.33137 0 0 1 -0.139396,0.92266 9.33137,9.33137 0 0 1 -0.230542,0.90364 9.33137,9.33137 0 0 1 -0.319738,0.87586 9.33137,9.33137 0 0 1 -0.406003,0.84028 9.33137,9.33137 0 0 1 -0.487405,0.79496 9.33137,9.33137 0 0 1 -0.564409,0.7428 9.33137,9.33137 0 0 1 -0.635575,0.68236 9.33137,9.33137 0 0 1 -0.700883,0.61559 9.33137,9.33137 0 0 1 -0.758886,0.54248 9.33137,9.33137 0 0 1 -0.809091,0.46401 9.33137,9.33137 0 0 1 -0.851493,0.38115 9.33137,9.33137 0 0 1 -0.885121,0.2939 9.33137,9.33137 0 0 1 -0.909979,0.20471 9.33137,9.33137 0 0 1 -0.926068,0.1121 9.33137,9.33137 0 0 1 -0.659942,0.0234 9.33137,9.33137 0 0 1 -0.931426,-0.0468 9.33137,9.33137 0 0 1 -0.922652,-0.1394 9.33137,9.33137 0 0 1 -0.903645,-0.23054 9.33137,9.33137 0 0 1 -0.875863,-0.31974 9.33137,9.33137 0 0 1 -0.840285,-0.406 9.33137,9.33137 0 0 1 -0.794949,-0.4874 9.33137,9.33137 0 0 1 -0.742804,-0.56442 9.33137,9.33137 0 0 1 -0.682363,-0.63557 9.33137,9.33137 0 0 1 -0.615591,-0.70088 9.33137,9.33137 0 0 1 -0.54248,-0.75889 9.33137,9.33137 0 0 1 -0.464005,-0.80909 9.33137,9.33137 0 0 1 -0.381151,-0.85149 9.33137,9.33137 0 0 1 -0.293902,-0.88512 9.33137,9.33137 0 0 1 -0.204711,-0.90999 9.33137,9.33137 0 0 1 -0.112103,-0.92606 9.33137,9.33137 0 0 1 -0.02339,-0.65994 9.33137,9.33137 0 0 1 0.04679,-0.93143 9.33137,9.33137 0 0 1 0.139396,-0.92265 9.33137,9.33137 0 0 1 0.230542,-0.90365 9.33137,9.33137 0 0 1 0.319735,-0.87586 9.33137,9.33137 0 0 1 0.406006,-0.84028 9.33137,9.33137 0 0 1 0.487405,-0.79496 9.33137,9.33137 0 0 1 0.564414,-0.7428 9.33137,9.33137 0 0 1 0.635569,-0.68236 9.33137,9.33137 0 0 1 0.700887,-0.61559 9.33137,9.33137 0 0 1 0.758886,-0.54248 9.33137,9.33137 0 0 1 0.80909,-0.46401 9.33137,9.33137 0 0 1 0.851493,-0.38114 9.33137,9.33137 0 0 1 0.885118,-0.29391 9.33137,9.33137 0 0 1 0.909985,-0.20471 9.33137,9.33137 0 0 1 0.926065,-0.1121 9.33137,9.33137 0 0 1 0.659942,-0.0234 z"
       id="path4569"
       inkscape:connector-curvature="0" />
    <path
       id="path4587"
       d="m 21.84078,263.37985 a 16.742826,16.742826 0 0 0 -5.971217,-0.3363 l -1.024877,3.3592 a 13.603546,13.603546 0 0 0 -2.20527,0.72474 l -2.8003737,-2.12544 a 16.742826,16.742826 0 0 0 -5.114335,4.3532 l 1.650328,3.1002 a 13.603546,13.603546 0 0 0 -1.049054,2.06421 l -3.481197,0.47719 a 16.742826,16.742826 0 0 0 -0.213093,0.72124 16.742826,16.742826 0 0 0 -0.3362961,5.97122 l 3.3591981,1.02487 a 13.603546,13.603546 0 0 0 0.724744,2.20527 l -2.125451,2.80038 a 16.742826,16.742826 0 0 0 4.353211,5.11434 l 3.1001907,-1.65034 a 13.603546,13.603546 0 0 0 2.064208,1.04905 l 0.477194,3.48121 a 16.742826,16.742826 0 0 0 0.721239,0.21309 16.742826,16.742826 0 0 0 5.971214,0.3363 l 1.02488,-3.35921 a 13.603546,13.603546 0 0 0 2.20527,-0.72474 l 2.800371,2.12545 a 16.742826,16.742826 0 0 0 5.114335,-4.35321 l -1.650327,-3.10019 a 13.603546,13.603546 0 0 0 1.049054,-2.06421 l 3.4812,-0.47719 a 16.742826,16.742826 0 0 0 0.21309,-0.72124 16.742826,16.742826 0 0 0 0.336298,-5.97122 l -3.3592,-1.02488 a 13.603546,13.603546 0 0 0 -0.724744,-2.20527 l 2.125451,-2.80037 a 16.742826,16.742826 0 0 0 -4.353208,-5.11433 l -3.100192,1.65032 a 13.603546,13.603546 0 0 0 -2.064213,-1.04905 l -0.477195,-3.4812 a 16.742826,16.742826 0 0 0 -0.721233,-0.21309 z m -2.191316,9.06148 a 7.420116,7.420116 0 0 1 0.711152,0.21025 7.420116,7.420116 0 0 1 0.687065,0.28019 7.420116,7.420116 0 0 1 0.655339,0.34709 7.420116,7.420116 0 0 1 0.617191,0.41083 7.420116,7.420116 0 0 1 0.573571,0.47086 7.420116,7.420116 0 0 1 0.523317,0.5253 7.420116,7.420116 0 0 1 0.468619,0.57507 7.420116,7.420116 0 0 1 0.408607,0.61877 7.420116,7.420116 0 0 1 0.344786,0.65678 7.420116,7.420116 0 0 1 0.27744,0.68794 7.420116,7.420116 0 0 1 0.207409,0.71207 7.420116,7.420116 0 0 1 0.135438,0.72936 7.420116,7.420116 0 0 1 0.06172,0.73904 7.420116,7.420116 0 0 1 -0.01185,0.74159 7.420116,7.420116 0 0 1 -0.08645,0.73671 7.420116,7.420116 0 0 1 -0.105244,0.51445 7.420116,7.420116 0 0 1 -0.210256,0.71115 7.420116,7.420116 0 0 1 -0.280194,0.68707 7.420116,7.420116 0 0 1 -0.347083,0.65534 7.420116,7.420116 0 0 1 -0.410832,0.61719 7.420116,7.420116 0 0 1 -0.47086,0.57357 7.420116,7.420116 0 0 1 -0.525299,0.52332 7.420116,7.420116 0 0 1 -0.575069,0.46861 7.420116,7.420116 0 0 1 -0.618776,0.40861 7.420116,7.420116 0 0 1 -0.656772,0.34479 7.420116,7.420116 0 0 1 -0.687938,0.27744 7.420116,7.420116 0 0 1 -0.712073,0.2074 7.420116,7.420116 0 0 1 -0.729361,0.13544 7.420116,7.420116 0 0 1 -0.739045,0.0617 7.420116,7.420116 0 0 1 -0.741585,-0.0119 7.420116,7.420116 0 0 1 -0.736711,-0.0864 7.420116,7.420116 0 0 1 -0.514442,-0.10527 7.420116,7.420116 0 0 1 -0.711153,-0.21026 7.420116,7.420116 0 0 1 -0.687067,-0.28019 7.420116,7.420116 0 0 1 -0.655336,-0.34709 7.420116,7.420116 0 0 1 -0.617196,-0.41083 7.420116,7.420116 0 0 1 -0.573569,-0.47086 7.420116,7.420116 0 0 1 -0.523317,-0.5253 7.420116,7.420116 0 0 1 -0.468619,-0.57507 7.420116,7.420116 0 0 1 -0.408607,-0.61877 7.420116,7.420116 0 0 1 -0.344786,-0.65678 7.420116,7.420116 0 0 1 -0.27744,-0.68793 7.420116,7.420116 0 0 1 -0.207407,-0.71208 7.420116,7.420116 0 0 1 -0.13544,-0.72935 7.420116,7.420116 0 0 1 -0.06172,-0.73905 7.420116,7.420116 0 0 1 0.01185,-0.74159 7.420116,7.420116 0 0 1 0.08645,-0.73671 7.420116,7.420116 0 0 1 0.10527,-0.51444 7.420116,7.420116 0 0 1 0.210257,-0.71115 7.420116,7.420116 0 0 1 0.280191,-0.68707 7.420116,7.420116 0 0 1 0.347085,-0.65534 7.420116,7.420116 0 0 1 0.410832,-0.61719 7.420116,7.420116 0 0 1 0.470858,-0.57357 7.420116,7.420116 0 0 1 0.525298,-0.52332 7.420116,7.420116 0 0 1 0.575072,-0.46862 7.420116,7.420116 0 0 1 0.618773,-0.4086 7.420116,7.420116 0 0 1 0.656778,-0.34479 7.420116,7.420116 0 0 1 0.687935,-0.27744 7.420116,7.420116 0 0 1 0.712074,-0.2074 7.420116,7.420116 0 0 1 0.729358,-0.13544 7.420116,7.420116 0 0 1 0.739045,-0.0617 7.420116,7.420116 0 0 1 0.741587,0.0119 7.420116,7.420116 0 0 1 0.736711,0.0864 7.420116,7.420116 0 0 1 0.514443,0.10527 z"
       style="visibility:inherit;opacity:1;fill:none;fill-opacity:1;stroke:#f3a40f;stroke-width:0.92604166;stroke-linecap:round;stroke-linejoin:round;stroke-miterlimit:4;stroke-dasharray:none;stroke-opacity:1"
       inkscape:connector-curvature="0" />
  </g>
</svg>
