<?xml version="1.0" encoding="UTF-8" standalone="no"?>
<svg
   xmlns:dc="http://purl.org/dc/elements/1.1/"
   xmlns:cc="http://creativecommons.org/ns#"
   xmlns:rdf="http://www.w3.org/1999/02/22-rdf-syntax-ns#"
   xmlns:svg="http://www.w3.org/2000/svg"
   xmlns="http://www.w3.org/2000/svg"
   xmlns:sodipodi="http://sodipodi.sourceforge.net/DTD/sodipodi-0.dtd"
   xmlns:inkscape="http://www.inkscape.org/namespaces/inkscape"
   version="1.1"
   preserveAspectRatio="xMidYMid meet"
   viewBox="0 0 229.98698 230.00013"
   id="svg4695"
   sodipodi:docname="tool.svg"
   inkscape:version="0.92.0 r"
   width="229.98697"
   height="230.00014"
   inkscape:export-filename="/Users/rinaandriana/Design/ICONS/mac.png"
   inkscape:export-xdpi="96"
   inkscape:export-ydpi="96">
  <metadata
     id="metadata4699">
    <rdf:RDF>
      <cc:Work
         rdf:about="">
        <dc:format>image/svg+xml</dc:format>
        <dc:type
           rdf:resource="http://purl.org/dc/dcmitype/StillImage" />
        <dc:title />
        <dc:title />
      </cc:Work>
    </rdf:RDF>
  </metadata>
  <sodipodi:namedview
     pagecolor="#ffffff"
     bordercolor="#666666"
     borderopacity="1"
     objecttolerance="10"
     gridtolerance="10"
     guidetolerance="10"
     inkscape:pageopacity="0"
     inkscape:pageshadow="2"
     inkscape:window-width="1920"
     inkscape:window-height="1035"
     id="namedview4697"
     showgrid="false"
     inkscape:zoom="0.8749005"
     inkscape:cx="185.442"
     inkscape:cy="21.618384"
     inkscape:window-x="1440"
     inkscape:window-y="23"
     inkscape:window-maximized="0"
     inkscape:current-layer="svg4695"
     fit-margin-top="0"
     fit-margin-left="0"
     fit-margin-right="0"
     fit-margin-bottom="0"
     showguides="true"
     inkscape:snap-midpoints="true"
     inkscape:snap-smooth-nodes="true"
     inkscape:object-paths="true"
     inkscape:object-nodes="true"
     inkscape:snap-intersection-paths="true"
     inkscape:guide-bbox="true"
     inkscape:snap-others="false"
     inkscape:snap-nodes="true" />
  <defs
     id="defs4545">
    <path
       d="m 276.05,366.91 c 10.24,0 18.54,8.3 18.54,18.54 0,34.79 0,120.62 0,155.41 0,10.24 -8.3,18.54 -18.54,18.54 -54.56,0 -199.7,0 -254.26,0 -10.24,0 -18.54,-8.3 -18.54,-18.54 0,-34.79 0,-120.62 0,-155.41 0,-10.24 8.3,-18.54 18.54,-18.54 54.56,0 199.7,0 254.26,0 z"
       id="c2kEIPcwb3"
       inkscape:connector-curvature="0" />
    <path
       d="M 295.19,385.46 3.25,386.29"
       id="h1BqjTp58G"
       inkscape:connector-curvature="0" />
    <path
       d="m 179.23,584.43 c 0,1.97 1.02,3.8 2.7,4.83 1.36,0.84 3.36,2.07 4.87,3 1.18,0.72 1.89,2 1.89,3.38 0,0.8 0,-0.59 0,-0.18 0,2.29 -1.86,4.16 -4.15,4.16 -15.42,0.03 -57.99,0.12 -73.53,0.15 -2.01,0 -3.69,-1.52 -3.9,-3.52 -0.06,-0.63 0.07,0.71 0,0 -0.19,-1.93 0.8,-3.78 2.52,-4.69 1.5,-0.79 3.82,-2.02 5.49,-2.9 1.25,-0.66 2.05,-1.93 2.1,-3.34 0.09,-2.75 0.25,-7.23 0.34,-9.6 0.08,-2.31 1.98,-4.14 4.29,-4.14 11.47,0 40.74,0 51.96,0 2.99,0 5.42,2.43 5.42,5.43 0,2.11 0,4.85 0,7.42 z"
       id="mnovqzMLB"
       inkscape:connector-curvature="0" />
    <path
       d="M 294.89,534.21 2.95,535.04"
       id="d1kLrqHX9s"
       inkscape:connector-curvature="0" />
    <path
       d="m 276.05,366.91 c 10.24,0 18.54,8.3 18.54,18.54 0,34.79 0,120.62 0,155.41 0,10.24 -8.3,18.54 -18.54,18.54 -54.56,0 -199.7,0 -254.26,0 -10.24,0 -18.54,-8.3 -18.54,-18.54 0,-34.79 0,-120.62 0,-155.41 0,-10.24 8.3,-18.54 18.54,-18.54 54.56,0 199.7,0 254.26,0 z"
       id="c2kEIPcwb3-4"
       inkscape:connector-curvature="0" />
    <path
       d="M 295.19,385.46 3.25,386.29"
       id="h1BqjTp58G-4"
       inkscape:connector-curvature="0" />
    <path
       d="m 179.23,584.43 c 0,1.97 1.02,3.8 2.7,4.83 1.36,0.84 3.36,2.07 4.87,3 1.18,0.72 1.89,2 1.89,3.38 0,0.8 0,-0.59 0,-0.18 0,2.29 -1.86,4.16 -4.15,4.16 -15.42,0.03 -57.99,0.12 -73.53,0.15 -2.01,0 -3.69,-1.52 -3.9,-3.52 -0.06,-0.63 0.07,0.71 0,0 -0.19,-1.93 0.8,-3.78 2.52,-4.69 1.5,-0.79 3.82,-2.02 5.49,-2.9 1.25,-0.66 2.05,-1.93 2.1,-3.34 0.09,-2.75 0.25,-7.23 0.34,-9.6 0.08,-2.31 1.98,-4.14 4.29,-4.14 11.47,0 40.74,0 51.96,0 2.99,0 5.42,2.43 5.42,5.43 0,2.11 0,4.85 0,7.42 z"
       id="mnovqzMLB-9"
       inkscape:connector-curvature="0" />
    <path
       d="M 294.89,534.21 2.95,535.04"
       id="d1kLrqHX9s-4"
       inkscape:connector-curvature="0" />
  </defs>
  <path
     style="opacity:1;fill:none;fill-opacity:1;stroke:#ffad33;stroke-width:3.5;stroke-linecap:butt;stroke-linejoin:miter;stroke-miterlimit:4;stroke-dasharray:none;stroke-opacity:1"
     d="m 227.37173,29.793623 c -0.73821,-0.789732 -1.97466,-0.476591 -3.8059,1.354625 l -17.74828,17.748039 c -0.85637,0.856354 -1.77755,1.605426 -2.74821,2.247692 -0.97066,0.642273 -1.99064,1.177797 -3.04295,1.605982 -1.0523,0.428177 -2.1374,0.749048 -3.23869,0.963136 -1.10127,0.214089 -2.21894,0.320308 -3.33655,0.320308 -1.11761,0 -2.23528,-0.106219 -3.33656,-0.320308 -1.10128,-0.214088 -2.18639,-0.534959 -3.23869,-0.963136 -1.0523,-0.428185 -2.07228,-0.963709 -3.04294,-1.605982 -0.97067,-0.642266 -1.89185,-1.391338 -2.74821,-2.247692 -0.85638,-0.856362 -1.60546,-1.777527 -2.24773,-2.748177 -0.64229,-0.970658 -1.17782,-1.990616 -1.606,-3.0429 -0.42818,-1.052291 -0.74907,-2.137374 -0.96316,-3.238651 -0.21409,-1.101262 -0.32031,-2.218919 -0.3203,-3.336512 -1e-5,-1.117593 0.10621,-2.235242 0.3203,-3.336511 0.2141,-1.10127 0.53497,-2.186361 0.96316,-3.238644 0.42818,-1.052291 0.96371,-2.072257 1.606,-3.042905 0.64227,-0.970651 1.39135,-1.891814 2.24773,-2.748174 L 198.813,6.4357992 c 10.64727,-10.64713 -30.0276,-1.184742 -40.68935,9.4478968 -9.56606,9.592005 -13.5618,23.410102 -10.59135,36.627148 l -0.0289,0.02891 -94.962947,94.961646 -0.02891,0.0289 c -13.217234,-2.97041 -27.035518,1.02529 -36.627652,10.59121 -10.6327872,10.66161 -20.0952982,51.33592 -9.4480322,40.6888 l 17.7282512,-17.728 c 0.856374,-0.85637 1.777551,-1.60543 2.748207,-2.24771 0.970671,-0.64227 1.990643,-1.17779 3.042941,-1.60597 1.052305,-0.42818 2.137411,-0.74905 3.238695,-0.96314 1.101277,-0.21409 2.218949,-0.3203 3.336557,-0.3203 1.117608,0 2.235281,0.10621 3.336557,0.3203 1.101285,0.21409 2.186391,0.53496 3.238696,0.96314 1.052298,0.42818 2.07227,0.96371 3.042941,1.60597 0.970664,0.64228 1.891841,1.39134 2.748215,2.24771 0.856365,0.85636 1.605448,1.77752 2.24773,2.74817 0.642274,0.97066 1.177805,1.99062 1.605996,3.0429 0.428183,1.05229 0.749058,2.13738 0.96315,3.23865 0.214099,1.10126 0.320311,2.21891 0.320311,3.33651 0,1.1176 -0.10622,2.23525 -0.320311,3.33651 -0.214092,1.10127 -0.534967,2.18637 -0.963158,3.23865 -0.428183,1.05229 -0.963714,2.07225 -1.605996,3.0429 -0.642274,0.97065 -1.391357,1.89181 -2.247731,2.74817 l -17.748273,17.74804 c -10.65449,10.65434 30.048026,1.17956 40.709377,-9.46792 9.586264,-9.59192 13.594304,-23.42388 10.621384,-36.65495 L 177.44234,82.47829 c 13.23124,2.97289 27.0634,-1.0351 36.65544,-10.62124 8.81757,-8.8288 16.83076,-38.258336 13.27396,-42.063435 z"
     id="path4785"
     inkscape:connector-curvature="0" />
  <rect
     style="opacity:1;fill:none;fill-opacity:1;stroke:#ffad33;stroke-width:3.5;stroke-linecap:butt;stroke-linejoin:miter;stroke-miterlimit:4;stroke-dasharray:none;stroke-opacity:1"
     id="rect4790"
     width="16.271442"
     height="127.5681"
     x="154.07207"
     y="-63.327892"
     ry="4.2862015"
     rx="9.5311832"
     transform="matrix(0.7071116,0.70710196,-0.7071116,0.70710196,0,0)" />
</svg>
